<svg width="42" height="42" viewBox="0 0 42 42" fill="none" xmlns="http://www.w3.org/2000/svg">
<path d="M20.6061 0C9.22608 0 0 9.2262 0 20.6062C0 31.9862 9.22608 41.2122 20.6061 41.2122C31.9861 41.2122 41.212 31.9862 41.212 20.6062C41.212 9.2262 31.9861 0 20.6061 0ZM28.717 10.4041H26.303C23.925 10.4041 23.1841 11.8801 23.1841 13.3931V16.9841H28.493L27.644 22.5171H23.1841V35.8931H17.202V22.5171H12.342V16.9841H17.202V12.7671C17.202 7.97009 20.06 5.32007 24.432 5.32007C26.526 5.32007 28.717 5.69409 28.717 5.69409V10.4041Z" fill="white"/>
</svg>
