<svg width="42" height="42" viewBox="0 0 42 42" fill="none" xmlns="http://www.w3.org/2000/svg">
<path d="M20.6064 0C31.9862 0.000263924 41.2119 9.22661 41.2119 20.6064C41.2118 31.9862 31.9861 41.2117 20.6064 41.2119C9.22653 41.2119 0.000131952 31.9863 0 20.6064C0 9.22645 9.22545 0 20.6064 0ZM15.6191 8.11621C11.4811 8.11621 8.11523 11.4811 8.11523 15.6191V25.5928C8.11523 29.7298 11.4821 33.0967 15.6191 33.0967H25.5918C29.7298 33.0967 33.0957 29.7298 33.0957 25.5928V15.6191C33.0957 11.4821 29.7288 8.11621 25.5918 8.11621H15.6191ZM25.5918 10.4658C28.4338 10.4658 30.7461 12.7771 30.7461 15.6191V25.5928C30.7461 28.4338 28.4338 30.7461 25.5918 30.7461H15.6191C12.7771 30.7461 10.4658 28.4348 10.4658 25.5928V15.6191C10.4658 12.7771 12.7771 10.4658 15.6191 10.4658H25.5918ZM20.708 14.4541C17.316 14.4541 14.5557 17.2144 14.5557 20.6064C14.5559 23.9982 17.3162 26.7578 20.708 26.7578C24.0998 26.7578 26.8601 23.9982 26.8604 20.6064C26.8604 17.2144 24.1 14.4541 20.708 14.4541ZM20.708 16.666C22.88 16.666 24.6484 18.4344 24.6484 20.6074C24.6483 22.7803 22.8809 24.5479 20.708 24.5479C18.5351 24.5479 16.7667 22.7803 16.7666 20.6074C16.7666 18.4344 18.535 16.666 20.708 16.666ZM27.2188 12.5762C26.4099 12.5763 25.7539 13.2311 25.7539 14.04C25.754 14.8488 26.4099 15.5048 27.2188 15.5049C28.0277 15.5049 28.6835 14.8479 28.6836 14.04C28.6836 13.232 28.0278 12.5762 27.2188 12.5762Z" fill="white"/>
</svg>
