<svg width="42" height="42" viewBox="0 0 42 42" fill="none" xmlns="http://www.w3.org/2000/svg">
<path d="M20.6061 0C9.22608 0 0 9.22496 0 20.606C0 31.987 9.22608 41.2119 20.6061 41.2119C31.9861 41.2119 41.212 31.987 41.212 20.606C41.212 9.22496 31.9861 0 20.6061 0ZM14.688 30.0591H10.24V15.769H14.688V30.0591ZM12.4651 13.8201C11.0391 13.8201 9.88599 12.6639 9.88599 11.2429C9.88599 9.82192 11.0381 8.66895 12.4651 8.66895C13.8921 8.66895 15.04 9.82292 15.04 11.2429C15.04 12.6629 13.8871 13.8201 12.4651 13.8201ZM31.326 30.0591H26.8881V23.1121C26.8881 21.4531 26.8561 19.322 24.5801 19.322C22.2681 19.322 21.915 21.127 21.915 22.991V30.0591H17.4761V15.769H21.7361V17.7229H21.7941C22.3881 16.5979 23.837 15.415 26 15.415C30.497 15.415 31.326 18.3729 31.326 22.2209V30.0591Z" fill="white"/>
</svg>
