<svg width="627" height="313" viewBox="0 0 627 313" fill="none" xmlns="http://www.w3.org/2000/svg">
<path d="M229.83 72.869C229.696 72.606 229.565 72.347 229.431 72.084C229.75 72.739 230.062 73.401 230.371 74.065C230.19 73.665 230.009 73.271 229.83 72.868V72.869Z" fill="#FE5B00"/>
<path d="M227.152 67.6064C226.99 67.3234 226.834 67.0503 226.678 66.7773C227.023 67.4023 227.358 68.0353 227.693 68.6693C227.513 68.3163 227.326 67.9484 227.152 67.6064Z" fill="#FE5B00"/>
<path d="M225.044 63.918C225.528 64.764 226.079 65.728 226.678 66.775C226.146 65.811 225.599 64.86 225.044 63.918Z" fill="#FE5B00"/>
<path d="M227.693 68.668C228.256 69.775 228.837 70.917 229.431 72.083C228.868 70.928 228.287 69.792 227.693 68.668Z" fill="#FE5B00"/>
<path d="M232.532 79.0078C233.096 80.4368 233.613 81.7438 234.036 82.8148C233.554 81.5268 233.049 80.2618 232.532 79.0078Z" fill="#FE5B00"/>
<path d="M230.371 74.0664C230.922 75.2824 231.46 76.4754 231.957 77.6264C231.445 76.4234 230.915 75.2374 230.371 74.0664Z" fill="#FE5B00"/>
<path d="M242.255 108.734C241.213 100.572 239.62 93.8768 237.575 87.3408C235.498 80.8128 232.895 74.4388 229.043 67.1668L229.458 66.9448C232.061 71.7978 234.852 78.1058 237.052 84.6188C239.257 91.1288 240.925 97.8128 241.92 103.23C242.54 105.918 242.212 103.185 241.876 100.432C241.587 97.6718 240.993 94.9538 241.784 97.6168C242.908 103.057 243.851 108.531 244.445 114.072C243.807 105.749 242.043 96.1198 239.059 86.8648C236.061 77.6128 231.932 68.7688 227.753 61.5518C226.394 59.1318 225.028 56.6988 223.941 54.9088C222.856 53.1178 222.19 51.8718 222.379 51.7328C214.009 40.5048 204.813 31.7298 195.895 24.9128C186.944 18.1178 178.351 13.1358 170.689 9.39582C168.139 8.18682 160.203 4.91382 150.429 2.86782C145.574 1.73282 140.263 1.06781 135.132 0.557809C134.74 0.528809 134.352 0.503807 133.963 0.477807C111.106 -1.58719 87.3184 3.06682 66.5544 13.9428C61.0874 16.8318 55.7984 20.0788 50.7874 23.7288C45.8034 27.4158 41.0783 31.4518 36.6503 35.7988C32.2663 40.1908 28.2213 44.9108 24.4993 49.8688C20.8103 54.8548 17.5523 60.1358 14.6113 65.5718C2.97034 87.3788 -1.84665 112.589 0.635352 136.665C3.02135 160.776 12.4904 183.592 26.7214 201.892C28.4424 204.227 31.1274 207.669 34.0584 210.912C36.9594 214.18 40.0703 217.277 42.2363 219.248C44.3803 221.236 46.7543 223.021 49.0953 224.914C51.5443 226.659 53.9674 228.523 56.5964 230.14C61.7514 233.535 67.3284 236.53 73.1614 239.148C78.9744 241.819 85.1223 243.967 91.4303 245.706C97.7323 247.477 104.244 248.678 110.802 249.376C123.92 250.86 137.25 250.035 149.777 247.43C156.034 246.079 162.102 244.318 167.883 242.176C173.64 239.971 179.125 237.46 184.251 234.665C194.499 229.006 202.249 222.184 207.18 216.903C208.456 215.622 209.484 214.347 210.408 213.266C211.316 212.168 212.122 211.262 212.702 210.45C213.86 208.855 214.505 207.967 214.505 207.967C216.353 205.773 217.856 203.302 218.537 202.026C219.192 200.725 218.913 200.51 216.9 202.485C215.049 204.604 212.392 207.418 209.346 210.326C207.797 211.753 206.229 213.289 204.521 214.667C202.854 216.092 201.167 217.49 199.465 218.727C192.75 223.809 186.566 227.133 186.339 226.726C186.289 226.641 187.44 225.866 189.173 224.714C190.938 223.61 193.213 222.02 195.473 220.399C195.21 220.035 198.151 217.011 201.412 213.459C202.234 212.57 203.078 211.656 203.911 210.756C204.724 209.823 205.525 208.904 206.279 208.038C207.841 206.35 209.11 204.749 210.056 203.777C210.942 202.743 212.823 200.326 215.167 197.225C217.426 194.055 220.096 190.155 222.395 186.042C222.971 185.017 223.547 183.993 224.116 182.979C224.636 181.94 225.15 180.913 225.653 179.91C226.688 177.923 227.524 175.955 228.28 174.188C229.074 172.438 229.657 170.826 230.131 169.511C230.598 168.2 230.96 167.181 231.186 166.547C232.539 162.743 232.212 162.61 230.824 164.857C229.42 167.108 227.001 171.58 223.623 176.795C220.277 182.019 215.822 187.821 211.102 192.975C206.393 198.15 201.378 202.619 197.452 205.852C193.46 209.024 193.216 208.7 194.02 207.691C194.771 206.612 196.443 204.704 196.208 204.442C195.271 205.274 194.394 206.053 193.56 206.793C192.698 207.5 191.849 208.131 191.042 208.75C189.446 210.013 187.86 211.026 186.295 212.061C183.157 214.123 179.907 215.985 175.59 218.502C175.576 218.476 175.145 218.662 174.376 219.021C173.611 219.388 172.504 219.918 171.135 220.574C169.739 221.174 168.077 221.89 166.227 222.686C164.329 223.363 162.301 224.274 160.067 224.955C155.67 226.532 150.674 227.757 145.889 228.765C143.481 229.207 141.135 229.655 138.904 229.905C136.686 230.25 134.593 230.393 132.737 230.559C132.737 230.559 131.507 230.774 128.401 230.918C125.303 231.134 120.304 231.234 112.878 230.477C110.397 230.238 109.161 230.088 108.533 230.067C107.904 230.055 107.885 230.172 107.867 230.288C107.891 230.133 107.916 229.978 107.94 229.823C105.435 229.702 101.747 228.983 98.1253 228.032C94.4913 227.11 90.9553 225.871 88.5473 225.179C88.6 225.031 88.6524 224.883 88.7044 224.735C79.1624 221.796 70.3733 216.845 62.1683 211.26C62.259 211.132 62.3497 211.004 62.4403 210.876C58.3553 208.045 54.6123 204.8 54.7803 204.611C54.8823 204.491 54.9847 204.372 55.0873 204.253C53.2644 202.591 50.5364 200.104 48.3554 197.93C47.2854 196.824 46.3233 195.826 45.6503 195.086C45.0043 194.321 44.6563 193.808 44.7413 193.733C44.624 193.836 44.5063 193.94 44.3883 194.044C41.0663 190.383 38.3814 186.593 35.8734 182.986C33.5034 179.281 31.3533 175.706 29.6043 172.096C26.0283 164.919 23.5124 157.922 21.6954 150.774C20.5894 145.982 19.6234 141.004 19.1064 135.846C18.6024 130.691 18.3643 125.39 18.5643 120.002C18.8043 114.618 19.4124 109.161 20.4204 103.704C21.4674 98.2528 22.9834 92.8298 24.8564 87.4858C26.7024 82.1248 29.1374 76.9398 31.8294 71.9118C34.5264 66.8778 37.6763 62.0808 41.1843 57.5868C44.6873 53.0928 48.4854 48.8348 52.6264 44.9948C56.7663 41.1568 61.1644 37.6638 65.7344 34.5448C69.8174 31.8288 73.9694 29.1058 69.4124 31.1188C73.6734 28.5768 78.1413 26.3678 82.6803 24.3808C84.9883 23.4738 86.4124 22.8608 87.3994 22.3978C88.4034 21.9828 88.9634 21.7028 89.5234 21.4178C90.6434 20.8508 91.7514 20.2208 96.5624 18.8758C115.794 13.3828 136.612 13.5528 155.84 19.3258C175.123 25.0398 192.658 36.2998 205.898 51.3748C219.181 66.4198 228.142 85.2408 231.49 105.023C234.917 124.805 232.694 145.434 225.305 164.16C229.114 154.842 231.459 146.279 232.779 137.553C233.972 128.823 234.286 119.898 232.927 109.894C233.138 109.868 233.674 109.803 232.886 104.78C231.652 97.2588 229.504 89.5618 226.574 82.2618C223.654 74.9558 219.956 68.0568 215.904 61.9758C207.808 49.7448 198.321 41.0638 192.572 36.0288C190.654 34.3308 188.694 32.6758 185.621 30.3428C183.098 28.5468 179.831 26.2958 174.988 23.7828C178.333 25.4708 181.616 27.2748 184.744 29.3398L185.124 28.7458C176.475 23.0178 165.786 17.9398 154.52 14.7028C143.267 11.4278 131.487 10.0528 121.054 10.3128C121.054 10.3128 121.039 9.84282 121.032 9.60882C117.532 9.69982 114.041 9.99282 110.567 10.4148C107.915 10.4098 109.476 9.74982 113.827 9.14082C118.162 8.45282 125.319 7.98882 133.613 8.54182C141.907 9.06282 151.278 10.8698 159.912 13.6398C168.564 16.3798 176.435 20.0958 182.215 23.3988C182.332 23.1958 182.567 22.7888 182.684 22.5848C179.587 20.7768 176.381 19.1708 173.141 17.6398L173.337 17.2128C188.045 23.9958 200.144 33.0908 210.218 43.9618C215.783 50.0108 220.753 56.6338 225.047 63.9198C224.939 63.7308 224.827 63.5358 224.727 63.3588C224.91 63.2498 225.119 63.1108 223.031 59.7728C228.683 68.5808 233.729 79.1818 236.947 90.3798C238.686 96.2168 239.962 102.192 240.742 108.064C241.544 113.931 241.986 119.688 241.964 125.116C242.055 127.829 242.289 127.846 242.551 125.125C242.669 123.764 242.873 121.716 242.822 118.981C242.856 116.244 242.687 112.822 242.258 108.735L242.255 108.734ZM174.766 23.6698C174.708 23.6398 174.647 23.6098 174.589 23.5798C174.648 23.6098 174.706 23.6398 174.766 23.6698Z" fill="#FE5B00"/>
<path d="M232.237 78.261C232.151 78.055 232.047 77.834 231.957 77.625C232.152 78.083 232.342 78.545 232.532 79.007C232.434 78.759 232.338 78.516 232.237 78.26V78.261Z" fill="#FE5B00"/>
<path d="M220.367 134.6C191.286 134.399 161.823 134.636 132.342 134.872C132.145 146.067 132.055 157.094 132.49 167.295C134.023 198.883 133.654 233.086 133.313 264.657C132.376 264.647 130.999 262 130.502 264.627C128.983 275.135 127.108 275.114 125.235 275.094C124.298 275.084 125.32 267.203 124.354 269.821C124.439 261.93 124.113 248.762 123.091 256.652C122.125 259.273 122.949 269.806 121.516 272.419C120.081 275.038 118.733 269.76 117.3 272.373C117.272 275.007 117.215 280.27 117.186 282.901C116.219 285.517 114.402 280.239 114.374 282.871C113.352 290.753 113.707 301.283 113.593 311.8C112.656 311.79 111.69 314.417 111.278 309.149C111.314 251.706 110.997 193.236 111.336 135.027C85.2203 135.213 59.1543 135.32 33.3963 135.033C26.3373 134.643 31.6043 132.711 36.8833 131.247C35.1253 131.736 35.1093 130.329 33.3483 130.818C33.3313 129.414 36.8363 127.027 43.8993 126.488L38.5993 126.542C36.8283 126.093 38.5843 125.137 38.5743 124.2C40.3443 124.18 42.1083 124.161 42.1043 123.691C42.1003 123.223 42.0903 122.286 42.0863 121.818C40.3203 121.837 36.7823 121.876 35.0153 121.896C36.7813 121.877 38.5493 121.857 38.5453 121.389C38.5403 120.92 38.5303 119.983 38.5253 119.514C42.0583 119.003 47.3723 119.899 50.9073 119.397L50.8953 117.993C47.3503 117.557 42.0493 118.067 38.5103 118.11C40.2763 117.621 40.2723 117.153 40.2623 116.215C45.5663 115.694 50.8873 117.052 56.1823 115.606L50.8763 115.648C54.3963 113.27 63.2593 115.088 68.5663 114.591C81.7543 113.355 97.1413 114.187 111.493 114.115C111.74 86.0159 112.165 58.0119 112.889 30.2529C113.47 19.7349 115.259 27.6499 116.579 35.5559C116.138 32.9219 117.544 32.9379 117.104 30.2979C118.51 30.3129 120.795 35.6009 121.15 46.1319C121.179 43.5009 121.207 40.8719 121.235 38.2379C121.732 35.6119 122.64 38.2529 123.577 38.2629C123.548 40.8969 123.52 43.5259 123.99 43.5309C124.457 43.5359 125.395 43.5459 125.863 43.5509C125.891 40.9229 125.948 35.6569 125.977 33.0279C125.948 35.6569 125.92 38.2879 126.388 38.2929C126.857 38.2979 127.794 38.3079 128.263 38.3129C128.674 43.5809 127.651 51.4619 128.064 56.7329L129.468 56.7479C129.994 51.4879 129.61 43.5909 129.667 38.3279C130.108 40.9669 130.576 40.9719 131.513 40.9829C131.896 48.8789 130.405 56.7579 131.726 64.6619C131.755 62.0329 131.783 59.4019 131.811 56.7729C134.097 62.0579 132.08 75.1899 132.463 83.0889C132.921 92.5209 132.902 102.706 132.748 113.107C151.836 111.938 171.98 112.154 190.739 112.472C190.723 113.409 188.93 114.784 190.692 115.283C197.747 116.807 197.712 118.682 197.679 120.556C197.662 121.493 192.376 120.467 194.126 121.434C188.823 121.339 179.972 121.675 185.265 122.692C187.018 123.655 194.102 122.84 195.843 124.274C197.587 125.71 194.029 127.056 195.769 128.49C197.537 128.522 201.069 128.587 202.835 128.619C204.579 129.591 201.017 131.398 202.782 131.431C208.058 132.463 215.125 132.142 222.179 132.294C222.16 133.232 223.905 134.205 220.367 134.599V134.6Z" fill="white"/>
<path d="M303.928 241.089H304.087C304.087 241.566 303.928 241.726 303.61 241.883C303.61 241.566 303.77 241.406 303.928 241.089ZM283.736 173.993C283.576 174.153 283.259 174.153 283.259 174.311C283.419 174.311 283.736 174.311 283.736 173.993ZM402.188 142.67C401.869 142.67 401.869 142.511 401.711 142.511C401.711 142.67 401.553 142.67 401.392 142.988C401.711 142.988 401.711 143.147 401.869 143.147C401.869 142.988 402.03 142.829 402.188 142.67ZM401.392 144.578H401.869V144.101H401.392V144.578ZM304.405 240.929C304.247 240.929 304.087 241.089 304.087 241.089C304.405 241.249 304.405 241.089 304.405 240.929ZM298.842 247.291C299 247.291 299.319 247.291 299.319 247.131C299.158 247.131 298.842 247.131 298.842 247.291ZM387.242 136.311V135.834H386.765V136.311H387.242ZM282.465 256.193C283.259 256.353 283.736 256.035 284.054 255.558C283.419 255.716 282.465 255.558 282.465 256.193ZM378.817 136.311H378.34C378.34 136.47 378.181 136.629 378.021 136.788C378.498 136.788 378.817 136.788 378.817 136.311ZM379.294 136.311V136.788H379.929C379.929 136.311 379.771 136.151 379.294 136.311ZM381.995 136.469C382.472 136.469 382.791 136.31 382.949 135.992C382.472 136.151 381.679 135.833 381.995 136.469ZM315.854 224.871C312.832 226.779 311.084 231.867 309.018 233.139C309.018 234.093 308.222 233.935 308.541 235.047C308.222 235.047 308.064 234.887 307.745 234.729C305.202 239.817 301.703 243.156 297.889 247.29V246.813C295.504 249.039 292.641 250.787 289.937 252.536C292.005 252.378 294.39 250.47 296.139 249.198C296.139 250.47 294.39 249.992 294.55 251.424C294.231 251.424 294.073 251.424 293.914 251.264C291.369 253.49 287.078 255.238 282.467 255.398C281.99 255.715 281.036 255.558 281.036 256.192C280.399 255.398 279.447 256.192 278.331 256.034C278.65 255.08 276.742 254.443 275.948 255.397C273.086 253.808 271.337 251.104 269.11 248.878C263.227 235.523 268.317 217.716 271.018 204.678C272.768 198.636 275.631 191.003 277.539 184.644C278.174 182.578 279.924 176.217 281.671 175.74C281.99 175.422 281.99 174.945 282.148 174.468C282.467 175.105 283.421 174.786 283.739 175.263C284.216 175.105 283.898 174.309 284.056 173.832C285.01 175.263 288.349 172.56 289.938 174.468C290.892 174.309 289.303 173.037 290.415 173.197C290.257 173.992 290.892 174.151 290.415 174.468C291.369 173.991 291.052 174.786 292.006 174.786C293.437 178.125 295.028 181.942 294.074 186.393C293.278 186.712 293.755 185.439 293.438 185.281C292.961 186.235 293.12 187.824 292.484 188.461C292.007 188.619 291.53 189.255 291.053 188.779C286.919 201.18 280.718 217.558 280.4 233.616C280.24 236.638 280.717 239.975 281.991 242.68C287.873 239.818 291.37 234.411 295.029 229.323C298.368 225.349 301.229 221.215 303.932 216.604C304.568 216.764 304.091 215.809 304.886 215.967C312.836 202.294 321.104 188.779 327.942 173.993C328.258 173.993 328.419 173.675 328.896 173.833C330.485 168.11 334.936 161.591 337.641 155.232C321.899 156.663 303.138 159.683 287.874 156.821C284.217 155.867 283.103 152.529 284.058 147.758C285.489 145.691 287.08 143.943 289.783 143.147C306.955 144.101 328.101 141.239 344.955 139.49C346.704 136.469 348.929 133.766 349.406 129.633C350.837 128.997 351.472 127.407 352.268 125.976C352.585 126.135 352.745 126.294 352.903 126.612C353.38 126.453 353.38 125.817 353.857 125.498C354.176 125.658 354.176 125.975 354.334 126.452C354.016 126.452 354.016 126.929 354.016 127.088C354.334 127.088 354.176 126.77 354.334 126.452C354.653 126.452 354.653 126.134 354.97 126.293C354.97 127.247 356.241 127.247 357.196 127.406C357.673 127.247 357.356 126.611 357.673 126.452C358.946 127.247 359.581 128.36 360.058 128.519C360.216 129.155 360.377 128.837 360.854 128.678C360.854 130.268 361.489 130.904 362.124 131.699C362.283 132.494 361.489 132.335 361.647 133.129C362.761 133.129 362.283 131.38 363.238 131.222C363.079 132.335 362.444 132.812 362.602 133.925C363.398 133.448 363.238 132.017 363.875 131.54C364.829 133.607 363.079 135.833 362.284 137.423C365.464 137.582 369.599 136.946 372.3 136.946C372.3 137.264 371.823 137.264 371.507 137.264C372.619 137.74 375.639 135.992 377.707 136.469C377.707 136.787 377.547 136.946 377.389 137.264C382.158 136.946 385.337 136.787 388.836 136.469C389.473 136.31 388.2 135.992 388.836 135.674C390.742 136.151 391.381 135.198 392.333 136.469C392.969 136.31 392.016 135.992 392.333 135.674C393.604 135.674 394.082 135.515 394.878 136.469C397.421 136.628 399.171 136.469 400.918 137.423C401.079 138.377 400.441 137.264 400.125 137.9C400.602 138.377 402.191 137.9 402.349 138.854C402.033 139.49 401.079 139.49 400.602 139.967C400.441 139.649 400.283 139.49 400.125 139.331C399.011 140.125 397.898 140.125 397.103 140.444C398.217 141.239 400.76 140.285 402.191 140.921C400.602 142.511 395.195 140.921 392.333 142.192C395.036 142.987 398.375 141.875 401.237 142.669C399.487 143.464 396.626 143.623 394.559 143.464C395.832 144.735 398.217 143.623 400.761 144.1C400.919 144.895 399.965 144.577 400.126 145.372C401.873 145.054 401.873 145.689 403.464 145.848C402.669 148.869 398.536 147.279 396.945 148.869C392.811 148.233 389.632 149.506 386.134 149.823C385.02 149.823 382.795 149.664 382.953 149.506C382.476 149.665 381.999 151.096 381.522 149.823C373.574 151.413 363.398 151.413 354.017 153.003C350.68 158.887 347.817 165.406 344.636 171.606C344.318 171.606 344.318 171.765 344.001 171.765C343.682 171.765 343.841 171.448 344.001 171.765C343.841 172.083 344.795 172.402 344.159 172.402C340.185 180.192 334.779 190.049 330.963 198.794C330.486 199.271 330.486 198.636 330.009 198.954C329.69 199.748 330.009 201.18 328.897 201.022C328.897 200.703 329.055 200.545 329.055 200.226C327.624 200.545 329.213 201.499 329.055 201.499C329.213 202.453 328.42 201.499 328.42 201.339C328.101 201.499 327.943 201.816 327.943 202.453C327.783 202.453 327.783 202.611 327.783 202.611C327.466 202.771 327.306 202.93 327.306 203.088C327.623 203.248 327.623 202.93 327.783 202.611C327.943 202.771 327.943 202.611 327.943 202.453C328.058 202.453 328.171 202.366 328.225 202.199C327.953 204.977 325.537 207.599 324.762 209.767V209.13C322.377 213.9 319.676 218.829 316.494 222.805C316.177 223.123 315.223 223.917 315.859 224.394V224.871H315.854ZM393.444 144.101C393.921 144.101 394.239 143.942 394.398 143.624C394.079 143.306 393.444 143.465 393.444 144.101ZM394.556 140.603C394.556 141.08 394.716 141.398 395.033 141.557C395.033 141.239 395.352 141.239 395.51 140.921C395.193 140.761 395.033 140.603 394.556 140.603ZM393.444 136.469C393.602 136.469 393.921 136.469 393.921 136.31C393.762 136.31 393.444 136.31 393.444 136.469ZM390.739 142.193C390.9 142.193 391.058 142.193 391.216 142.034C390.9 142.034 390.739 142.034 390.739 142.193ZM387.402 145.214C387.402 145.691 387.719 145.85 387.879 145.85C387.879 145.533 387.719 145.374 387.402 145.214ZM386.13 145.214C386.13 145.691 386.288 145.85 386.607 145.85C386.607 145.533 386.448 145.374 386.13 145.214ZM385.494 145.691C385.653 145.691 385.811 145.691 385.811 145.374C385.653 145.533 385.494 145.533 385.494 145.691ZM382.949 145.691C382.632 145.532 382.314 145.85 382.155 145.85C381.995 146.327 383.109 145.85 382.949 145.691ZM369.118 137.901C369.595 137.741 370.549 138.219 370.23 137.424H369.118V137.901ZM360.531 130.586C360.689 130.427 361.008 129.156 360.212 129.473C360.373 129.791 359.896 130.586 360.531 130.586ZM339.861 174.947C340.022 174.947 340.338 174.947 340.338 174.788C340.18 174.788 339.861 174.788 339.861 174.947ZM339.226 180.512C338.591 181.149 337.477 182.58 337.795 183.532C338.272 182.42 339.068 181.783 339.226 180.512C339.861 179.875 340.338 178.921 340.499 177.809C340.338 176.855 341.292 177.649 340.499 177.809H340.338C340.022 178.763 339.226 179.24 339.226 180.512ZM337.954 179.081C338.272 178.604 339.226 177.65 338.749 177.015C338.749 177.969 337.954 178.127 337.954 179.081C338.272 180.035 337.318 179.081 337.954 179.081ZM330.162 198.161C329.527 198.161 328.892 199.433 329.369 199.75C329.527 199.115 329.846 198.638 330.162 198.161ZM337.318 183.691C335.41 187.984 332.07 192.118 331.117 196.729C332.708 192.118 336.206 187.984 337.318 183.691ZM335.569 185.44C335.251 185.6 335.251 185.759 335.251 185.917C335.092 185.917 335.092 186.236 335.092 186.394C334.455 186.713 334.297 187.667 333.978 188.302C334.774 188.144 334.774 187.19 335.092 186.394C335.251 186.394 335.251 186.077 335.251 185.917C335.569 185.917 335.409 185.759 335.569 185.44C335.886 184.805 336.523 184.168 336.683 183.214C337.318 183.056 337.16 182.102 337.637 181.783C336.841 181.783 336.683 182.579 336.683 183.214H336.364C336.206 184.168 335.409 184.328 335.569 185.44ZM334.297 185.917C334.774 186.077 334.774 185.599 334.774 185.282C335.092 185.282 334.932 184.963 335.092 184.805C335.198 184.805 335.251 184.752 335.251 184.645C335.251 184.327 335.569 184.485 335.251 184.645C335.092 184.485 335.092 184.645 335.092 184.805C334.774 184.805 334.932 185.122 334.774 185.282C334.615 185.44 334.455 185.759 334.297 185.917ZM333.978 183.851C333.978 183.851 334.455 183.057 333.978 183.057C333.82 183.215 333.343 183.851 333.978 183.851ZM333.184 189.574C333.661 189.734 334.138 188.78 333.661 188.78C333.501 189.097 333.343 189.257 333.184 189.574ZM328.415 187.825C329.208 187.985 328.731 187.031 329.05 186.871C328.415 186.871 328.573 187.348 328.415 187.825ZM326.507 202.454C327.461 201.977 327.619 200.704 328.254 199.75H328.415C328.573 199.433 328.731 199.273 328.573 198.796C329.846 196.89 331.116 194.981 331.912 192.596H332.07C332.07 192.279 332.389 192.119 332.23 191.642C332.547 191.642 332.547 191.482 332.547 191.165H332.707C332.707 190.847 333.661 190.37 333.024 190.051C332.866 190.528 332.547 190.688 332.547 191.165C332.23 191.325 332.389 191.482 332.23 191.642H332.07C331.912 191.959 331.753 192.279 331.912 192.596H331.593C330.639 194.662 329.369 196.57 328.573 198.796H328.415C328.254 198.956 328.096 199.273 328.254 199.75C327.302 200.227 327.142 201.5 326.507 202.454ZM326.507 204.52C327.142 204.68 327.619 203.566 326.984 203.408C327.142 203.883 326.665 204.043 326.507 204.52ZM325.87 204.043C326.187 204.043 326.029 203.726 326.187 203.566C326.029 203.248 326.506 203.408 326.187 203.566C325.87 203.566 325.87 203.883 325.87 204.043C325.87 204.361 325.552 204.203 325.87 204.043ZM325.234 205.634C324.917 205.315 325.871 204.838 325.234 204.68C325.076 204.838 324.599 205.634 325.234 205.634ZM324.757 208.654C324.757 208.019 325.234 207.86 325.234 207.223C325.871 206.746 326.507 206.111 326.507 204.997C326.507 204.68 326.984 204.837 326.507 204.997H326.348C326.03 205.791 325.394 206.269 325.234 207.223H324.917C324.917 207.7 324.122 208.337 324.757 208.654ZM322.531 209.29C322.691 209.29 322.849 209.29 322.849 209.13C322.691 209.13 322.531 209.13 322.531 209.29ZM322.054 212.31C322.691 212.152 322.849 211.675 322.849 210.879C323.168 211.039 323.168 210.879 323.168 210.721C323.326 210.721 323.326 210.402 323.326 210.244C323.803 210.244 323.803 209.607 324.122 209.29C323.486 209.29 323.486 209.767 323.326 210.244C323.168 210.244 323.168 210.561 323.168 210.721C323.008 210.721 322.849 210.721 322.849 210.879C322.372 211.039 322.372 211.833 322.054 212.31ZM356.557 127.089C356.557 126.771 357.351 125.975 356.397 125.975C356.237 126.452 355.92 126.929 356.557 127.089ZM362.12 130.586C362.597 130.586 362.597 130.11 362.756 129.633C361.962 129.473 362.439 130.428 362.12 130.586ZM316.489 222.805V223.282C316.808 223.282 317.285 222.645 316.489 222.805ZM315.854 224.394C316.012 224.554 316.012 224.394 316.012 224.234C315.907 224.234 315.854 224.287 315.854 224.394ZM316.012 224.235C316.331 224.235 316.172 223.918 316.331 223.76C316.012 223.76 316.172 224.077 316.012 224.235ZM385.176 136.311V135.834H384.699V136.311H385.176ZM316.331 223.76C316.489 223.76 316.489 223.44 316.489 223.282C316.331 223.282 316.331 223.6 316.331 223.76ZM402.346 142.511V142.988H402.983C403.142 142.511 402.823 142.352 402.346 142.511ZM304.405 240.929C304.724 240.771 304.882 240.612 304.882 240.294H304.564C304.405 240.452 304.405 240.611 304.405 240.929ZM314.423 226.462C314.529 226.462 314.634 226.409 314.74 226.302C314.529 226.302 314.423 226.355 314.423 226.462ZM310.765 232.027C311.084 231.867 311.242 231.708 311.242 231.231H311.084C310.925 231.55 310.765 231.708 310.765 232.027ZM310.607 232.662C310.607 232.504 310.765 232.344 310.765 232.027H310.607C310.449 232.185 310.13 232.662 310.607 232.662ZM328.22 202.2C328.241 202.137 328.254 202.064 328.254 201.977C328.25 202.052 328.227 202.125 328.22 202.2ZM296.774 249.674C296.774 249.357 297.092 249.516 297.251 249.357C297.092 248.722 297.569 248.722 297.726 248.245C297.091 248.245 296.614 248.245 297.091 248.722C296.456 248.722 296.137 248.722 296.137 249.199C296.614 249.039 296.457 249.674 296.774 249.674ZM376.746 173.993C377.383 174.47 377.54 175.265 378.175 175.584C378.175 174.788 377.221 173.676 376.746 173.993ZM379.925 176.061C379.767 176.061 379.606 176.061 379.606 176.219C379.767 176.219 379.925 176.219 379.925 176.061ZM388.512 174.47C388.828 174.153 388.67 173.516 388.193 173.356C388.351 173.675 388.035 174.47 388.512 174.47ZM379.129 174.947C378.813 174.788 378.652 174.47 378.336 174.47C378.175 174.947 378.971 175.424 379.129 174.947ZM434.775 225.348C434.697 225.329 434.621 225.296 434.545 225.27C434.633 225.351 434.727 225.397 434.775 225.348ZM448.609 214.219C448.609 214.536 448.132 214.696 448.609 214.856C448.609 214.696 448.925 214.379 448.609 214.219ZM450.198 212.788C450.198 212.471 450.037 212.471 449.721 212.311V212.788H450.198ZM543.046 196.093C542.73 196.73 541.934 196.57 541.934 197.524C542.092 197.366 542.253 197.207 542.569 197.207C542.569 196.89 543.684 196.413 543.046 196.093ZM552.429 194.504C552.906 193.708 553.86 193.232 554.176 192.436C553.541 192.755 551.952 193.55 552.429 194.504ZM553.064 195.139C553.541 195.299 554.176 194.504 553.541 194.504C553.541 194.822 553.222 194.822 553.064 195.139ZM531.281 173.356C531.281 173.675 531.439 173.675 531.6 173.675C531.6 173.515 531.439 173.356 531.281 173.356ZM552.268 194.662C552.11 194.981 551.791 195.139 551.791 195.458C552.268 195.616 552.745 194.821 552.268 194.662ZM551.791 193.867C550.679 194.027 550.679 195.298 550.202 195.935C550.044 195.458 550.202 194.981 549.883 194.981C550.044 195.299 549.725 195.299 549.406 195.458V195.935C549.725 195.935 549.567 196.252 549.725 196.57C549.248 196.57 549.406 197.207 548.771 197.047V197.207C549.09 197.367 548.771 197.367 548.771 197.684C550.044 196.73 551.314 195.616 551.791 193.868V193.867ZM546.705 197.047C546.07 197.047 545.751 197.366 545.751 197.843C546.547 198.001 546.386 197.366 546.705 197.047ZM523.172 224.554C522.695 224.554 522.379 224.554 522.218 224.872C522.695 225.032 523.014 224.872 523.172 224.554ZM523.81 224.077C523.333 224.077 523.172 224.235 523.172 224.554C523.649 224.554 523.81 224.394 523.81 224.077ZM545.593 194.504C545.593 194.185 546.547 193.867 545.751 193.55C545.751 193.867 544.797 194.185 545.593 194.504ZM540.503 199.115C540.503 198.638 541.615 198.321 540.98 197.843C540.98 198.32 539.868 198.637 540.503 199.115ZM544.161 195.458C544.319 195.458 544.319 195.298 544.477 195.139C544.161 195.139 544.161 195.299 544.161 195.458ZM552.587 195.616C552.429 195.616 552.268 195.616 552.268 195.935C552.429 195.775 552.587 195.775 552.587 195.616ZM544 195.616C544.108 195.616 544.161 195.563 544.161 195.458C544 195.298 544 195.458 544 195.616ZM543.684 195.935C543.842 195.935 544 195.775 544 195.616C543.684 195.616 543.684 195.776 543.684 195.935ZM531.758 173.833C531.916 173.675 531.758 173.675 531.6 173.675C531.6 173.78 531.653 173.833 531.758 173.833ZM544.477 195.139C544.585 195.139 544.638 195.086 544.638 194.981C544.477 194.821 544.477 194.981 544.477 195.139ZM579.772 188.144C580.088 187.984 580.884 188.302 580.565 187.667C580.249 187.667 579.93 187.825 579.772 188.144ZM587.562 167.633C587.562 167.316 587.404 166.997 587.085 166.997C587.085 167.474 587.243 167.633 587.562 167.633ZM586.766 186.713C587.085 186.236 588.359 186.713 588.359 186.076C587.721 185.916 586.132 186.236 586.766 186.713ZM609.664 186.713C609.98 186.713 610.299 186.713 610.457 186.553C610.138 186.553 609.822 186.393 609.664 186.713ZM607.913 186.236C607.755 186.236 607.436 186.236 607.436 186.553C607.594 186.393 607.913 186.393 607.913 186.236ZM592.49 184.646C592.809 184.646 593.125 184.646 593.286 184.486C592.967 184.486 592.648 184.328 592.49 184.646ZM597.738 183.532C597.419 183.532 596.942 183.532 597.103 184.009C597.58 184.009 597.738 183.851 597.738 183.532ZM597.738 184.169C598.057 184.169 598.373 184.329 598.534 184.486C599.169 184.009 597.896 183.692 597.738 184.169ZM605.528 182.579C604.893 182.897 604.097 182.897 603.778 183.531C604.574 183.373 605.209 183.213 605.528 182.579ZM605.848 186.713V186.871C606.325 187.031 606.164 186.713 605.848 186.713ZM591.694 173.039C591.217 172.881 591.536 171.927 590.901 172.085C590.74 172.722 591.217 173.676 591.694 173.039ZM559.578 236.161C557.354 236.319 554.492 236.955 552.742 237.115C543.678 237.91 536.365 235.207 532.39 230.277C531.278 227.574 530.005 225.189 528.416 223.123C528.946 222.272 528.486 221.845 528.121 221.325C527.924 221.404 527.71 221.476 527.465 221.532C527.465 221.851 527.784 221.851 527.623 222.169C527.465 222.169 527.465 222.009 527.307 222.009V221.532C526.988 221.532 526.988 222.009 527.307 222.009C527.307 222.169 526.988 222.169 526.988 222.486C526.511 222.486 526.195 222.328 525.876 222.169C525.876 222.646 525.399 222.646 525.241 223.283C523.968 222.964 521.263 224.712 519.832 225.667C520.151 225.986 521.263 225.032 521.74 224.873C520.628 226.464 518.562 226.941 516.654 227.735C516.812 228.53 516.496 228.849 515.858 228.849C515.7 228.212 516.177 228.372 516.177 227.895C515.542 227.735 515.7 228.689 515.065 228.212C515.065 228.372 515.223 228.689 515.542 228.53C514.746 229.961 511.726 229.324 511.249 230.438C510.93 230.438 510.93 229.961 510.772 229.801C508.703 230.755 505.047 232.186 502.343 230.915C501.389 231.075 502.504 231.869 501.55 232.029C500.596 232.029 501.55 231.552 501.389 230.915C500.277 232.029 498.211 231.232 497.257 230.278C497.096 230.278 496.622 231.074 496.303 230.438C496.461 230.438 496.622 230.278 496.622 229.961C496.145 229.961 495.668 229.961 495.668 230.278C494.714 229.006 494.395 228.689 492.487 228.529C491.375 227.257 490.421 225.667 489.306 224.555C488.99 224.555 488.99 224.713 488.99 224.873C488.513 224.555 488.99 224.078 488.036 224.555C487.614 222.588 486.328 221.61 485.922 219.764C480.992 225.101 475.316 230.244 466.575 228.372C465.779 228.53 466.098 228.372 465.302 228.689C464.348 227.417 462.598 226.94 461.167 226.144C455.127 220.739 457.193 208.814 458.466 201.659C456.716 203.409 455.127 205.475 453.853 207.861C453.537 207.701 453.537 207.384 453.537 207.067C454.172 206.43 455.445 205.317 455.126 204.522C455.445 204.205 456.08 204.362 456.08 203.728C455.922 203.251 455.126 204.045 455.126 204.522C454.649 205.476 453.695 205.953 453.537 207.067C452.106 208.656 450.833 210.405 449.721 212.313C445.428 217.083 442.088 226.782 434.617 224.714C434.175 224.714 434.346 225.09 434.544 225.272C433.363 224.871 432.263 223.742 430.323 223.442C429.527 221.853 428.096 221.057 427.461 219.468C428.096 206.113 432.708 196.731 435.094 185.124C424.441 197.845 416.332 212.949 409.018 228.849C408.064 229.324 407.268 229.007 406.633 229.961C405.36 229.484 405.202 229.801 404.406 230.438C404.406 229.801 403.452 229.644 403.452 230.278C403.136 229.961 403.294 229.166 402.817 229.166C402.498 229.166 402.498 229.643 402.34 229.801C401.705 229.643 402.498 229.324 402.34 228.849C400.114 228.849 398.524 227.576 396.298 226.622C396.457 225.828 396.138 225.51 396.138 225.033C396.319 224.373 396.534 223.713 396.742 223.052C394.614 224.801 392.163 226.191 389.625 227.576C387.24 228.053 385.491 228.372 383.423 228.53C375.632 227.576 371.181 223.125 370.862 214.697C370.067 214.697 370.067 215.174 370.227 215.969C365.616 220.739 360.686 225.191 353.373 227.418C345.582 227.418 340.654 224.556 339.223 218.196C339.065 203.25 345.742 193.392 353.85 183.375H354.169C354.01 183.692 354.169 183.852 354.327 183.852C354.804 183.692 354.486 183.375 354.169 183.375C354.963 182.421 355.6 181.149 356.712 180.195C357.189 180.83 355.758 181.307 355.758 181.944C355.6 182.104 355.281 182.262 355.281 182.421C355.281 183.058 355.917 182.421 355.758 181.944C358.939 179.399 361.323 175.742 366.093 174.471C366.253 174.154 366.57 173.835 366.887 173.517C370.384 173.835 371.498 173.357 374.678 174.631C374.838 173.835 373.407 174.471 373.566 173.517C375.951 174.312 377.698 175.585 379.291 177.016C381.515 175.902 382.946 174.312 385.331 173.358C385.808 173.358 385.331 174.312 385.968 174.312C386.285 174.312 386.445 173.994 386.445 173.517C387.559 173.994 388.671 176.379 390.102 175.108C390.419 175.425 390.419 176.062 391.056 176.062C390.896 176.697 390.26 176.856 390.579 177.97C390.737 178.605 391.056 177.651 391.373 177.97C391.373 178.764 391.533 179.399 392.167 179.559C392.009 180.353 391.055 181.467 391.85 181.944C388.193 192.279 383.423 202.296 384.377 215.174C389.944 213.425 393.599 209.45 397.098 205.635C397.415 205.635 397.734 205.635 397.892 205.793C401.105 202.313 404.646 199.055 408.06 195.741C409.33 191.908 410.642 187.792 412.674 185.761C414.901 186.238 415.696 184.965 417.444 186.238C418.725 185.427 419.796 184.406 420.774 183.291C420.834 183.18 420.909 183.081 421.016 183.011C423.562 180.021 425.509 176.41 428.893 174.155C428.735 173.518 429.209 173.518 429.051 173.041C431.913 170.656 434.776 168.113 439.227 167.318C440.5 167.795 441.454 167.635 442.566 167.795C443.043 168.589 444.474 169.384 445.109 168.907C453.696 175.426 447.494 189.735 444.951 198.798C447.813 196.095 449.879 192.598 452.422 189.418C452.741 189.418 452.741 189.735 453.218 189.735C453.376 188.781 453.695 187.827 454.807 187.669C454.807 187.827 454.968 187.827 455.126 187.827C455.284 187.35 454.968 187.669 454.807 187.669V187.35C454.807 186.715 455.761 186.715 456.08 187.033C457.511 182.899 459.735 182.74 463.236 180.831C464.029 180.514 464.029 181.308 464.667 181.468C465.302 181.468 465.302 180.991 465.937 180.991C468.006 182.422 470.072 183.694 471.661 185.284V186.556C472.296 187.51 472.934 187.987 473.092 189.259C474.523 198.004 468.483 208.499 469.911 217.878C477.705 214.539 481.36 207.225 488.196 202.934C488.673 202.297 489.15 201.503 489.789 200.866C490.74 200.866 489.789 201.183 489.947 201.82C489.986 201.83 490.022 201.834 490.059 201.842C490.212 201.755 490.38 201.686 490.578 201.661C490.578 201.344 490.578 201.184 490.42 201.184C490.42 200.39 490.578 199.912 491.055 199.753C491.055 200.39 491.213 200.072 491.532 199.913C491.532 199.596 491.374 199.436 491.213 199.753H491.055C492.486 196.256 495.029 193.553 497.414 190.531C499.641 187.988 501.865 184.966 504.093 182.74C509.34 177.812 515.542 173.201 524.287 172.087C526.195 172.247 527.784 173.041 530.008 173.041C530.962 173.836 531.601 174.949 533.189 175.267C533.508 175.903 533.666 176.54 534.143 176.858C534.62 176.858 534.301 175.904 533.824 175.904C534.939 175.587 535.416 177.812 534.778 178.447C534.778 178.766 535.416 178.607 535.732 178.766C536.686 181.151 534.939 182.74 534.62 184.648C535.416 184.648 535.097 183.376 535.416 183.059C536.051 182.899 535.255 184.331 536.209 184.011C535.893 184.33 536.051 184.807 535.255 184.648C534.939 187.351 532.077 188.622 531.281 191.007C530.485 193.71 529.054 194.664 526.988 197.049C523.172 201.342 518.878 205.636 514.111 207.384C509.34 208.973 504.093 207.861 500.912 205.316C499.165 208.497 497.734 211.995 497.892 217.082C497.892 217.4 498.05 217.4 498.211 217.559C500.596 220.102 506.002 219.467 508.864 217.877C517.609 215.492 523.491 210.563 530.485 206.589C530.804 206.112 531.281 205.793 531.6 205.316C533.031 205.316 533.189 204.204 533.824 203.567C534.301 203.567 534.62 203.884 534.62 204.361C535.574 204.043 534.62 203.567 534.62 202.932C535.416 203.09 535.416 202.455 535.732 201.978C536.051 202.136 535.893 202.613 536.37 202.455C536.686 202.136 536.686 201.341 537.005 201.182C537.798 201.501 536.37 201.819 537.005 202.296C537.64 201.978 537.798 201.501 537.482 200.865C537.959 200.865 537.798 201.502 538.436 201.342V201.182C538.436 200.865 538.752 201.024 538.436 201.182C537.64 200.388 538.913 200.388 539.071 200.865C538.913 199.751 539.071 199.751 539.548 199.116C540.344 199.274 539.39 199.593 539.548 199.91C540.66 199.116 542.091 198.796 542.568 197.207C542.729 197.207 542.887 197.367 542.729 197.684C544.318 195.299 547.815 194.504 548.927 192.119C550.677 192.437 547.338 194.345 546.861 195.458C545.749 195.935 544.953 197.047 544.476 198.161H544.16C544.16 198.478 544.476 198.321 544.476 198.161C545.114 198.478 545.114 198.321 545.272 197.684C545.907 198.001 545.272 198.796 545.114 199.115H544.637C543.999 198.955 544.795 198.161 544.637 199.115C544.476 199.273 544.318 199.592 544.476 199.909C544.953 199.909 544.795 199.432 545.114 199.115C545.43 199.115 545.272 199.433 545.591 199.592C545.907 199.432 545.907 198.955 546.068 198.638C546.198 198.899 546.534 198.954 546.741 199.138C546.981 199.029 547.223 198.921 547.466 198.813C547.423 198.607 547.438 198.357 547.339 198.16C547.616 198.252 547.768 198.452 547.8 198.665C548.611 198.308 549.416 197.946 550.199 197.563C550.275 197.406 550.359 197.264 550.359 197.206C550.529 197.206 550.605 197.265 550.63 197.35C551.391 196.963 552.107 196.535 552.768 196.058C553.032 195.705 553.401 195.457 554.017 195.457C553.983 195.524 553.942 195.584 553.898 195.642C555.581 195.634 557.068 194.314 558.942 194.026H559.419C559.419 195.138 560.212 193.866 560.689 194.026C560.373 193.389 559.896 194.343 559.419 194.026C560.689 193.389 562.758 192.435 563.87 192.435C558.465 177.648 572.138 169.54 581.836 166.361C582.632 166.678 583.425 167.155 584.54 166.838C584.856 166.996 586.287 168.109 586.129 167.315C586.606 167.792 587.083 168.267 587.56 168.904C588.356 169.064 588.037 167.95 588.833 167.95C588.833 169.222 589.626 169.858 590.422 169.541C590.422 170.812 590.58 170.176 591.376 170.018C591.215 170.972 592.011 171.13 591.853 172.084C591.215 171.926 591.534 170.812 590.899 170.653C590.422 170.653 591.215 171.449 590.899 172.084C589.945 173.038 589.945 174.629 590.738 175.9C590.103 175.9 590.103 175.423 589.945 174.786C589.468 175.422 588.833 175.74 588.833 176.854C588.672 176.854 588.514 176.537 588.356 176.377C588.037 176.377 588.356 177.172 588.037 177.331C582.632 179.716 577.065 181.624 576.588 188.778C577.703 189.095 578.338 187.824 578.973 188.46C578.657 188.618 578.973 188.778 578.973 188.46C583.424 187.506 586.448 187.188 590.738 185.757C590.738 186.074 590.58 186.074 590.422 186.234C590.261 186.234 590.103 186.234 589.945 186.551H589.149C589.149 187.188 589.784 186.868 589.945 186.551C590.261 186.551 590.422 186.391 590.422 186.234C591.057 185.915 592.169 186.234 592.488 185.597H593.284C593.123 185.28 592.488 185.28 592.488 185.597C591.692 185.757 591.215 185.28 590.422 185.28C590.58 184.803 592.169 184.643 591.376 185.28C592.33 185.28 592.807 184.803 593.919 184.803C594.238 185.12 594.238 185.757 595.031 185.597C595.192 184.803 594.554 184.803 593.919 184.803C594.396 184.484 595.031 184.166 595.985 184.166C595.985 184.643 595.031 184.166 595.031 184.803C596.304 184.961 596.624 184.166 597.736 184.166C597.259 184.96 595.67 184.643 595.508 185.757C594.873 185.757 594.396 185.915 594.077 186.234C594.238 186.551 595.35 186.074 595.508 185.757C596.462 185.28 597.578 184.961 598.532 184.484C600.121 184.803 601.391 183.69 603.776 183.53C603.776 184.167 602.983 184.326 603.46 184.803C603.776 184.326 603.937 183.849 604.414 184.643C604.73 184.643 604.73 184.325 604.73 184.006C604.891 184.166 606.003 184.483 606.003 184.006C606.48 184.166 606.799 184.325 606.799 185.12C607.434 185.28 607.276 184.326 608.069 184.643C606.957 186.074 604.414 186.074 602.821 186.869C603.617 187.665 605.049 185.915 605.845 186.711C605.526 186.711 605.684 186.869 605.845 186.869C605.526 187.346 605.049 187.506 604.414 187.665C605.845 187.982 607.911 186.392 609.5 186.711C608.23 188.3 605.368 188.142 603.937 189.731C604.73 189.414 605.368 189.094 606.48 189.254C606.003 189.891 604.73 189.731 604.252 190.368C605.206 190.686 606.48 189.254 608.068 189.414C599.643 193.865 588.99 196.41 579.449 199.748C580.88 203.564 582.311 207.381 582.631 211.037C582.631 227.095 571.501 232.025 559.575 236.159L559.578 236.161ZM604.416 185.759C604.574 185.122 605.209 186.236 605.37 185.282C605.686 185.122 606.64 185.282 606.482 184.645C606.005 184.645 605.528 184.805 605.37 185.282C604.893 185.282 603.62 185.44 604.416 185.759ZM599.011 188.144C598.85 188.144 598.534 188.144 598.534 188.302C598.692 188.302 599.011 188.302 599.011 188.144ZM602.666 186.871H602.189V187.348H602.666V186.871ZM597.58 186.236C598.215 186.236 598.534 186.076 598.692 185.759C600.439 185.122 602.189 185.759 602.824 184.168C601.554 184.805 599.804 184.962 598.692 185.759C598.215 185.917 597.419 185.44 597.58 186.236ZM596.626 188.939C596.149 188.939 595.511 188.939 595.511 189.416C595.988 189.256 596.465 189.416 596.626 188.939C596.942 188.779 596.626 188.779 596.626 188.939ZM595.033 186.871C595.671 187.031 596.148 187.031 596.148 186.554C595.671 186.394 595.194 186.554 595.033 186.871ZM593.921 187.348C594.079 187.348 594.398 187.348 594.398 187.19C594.24 187.19 593.921 187.19 593.921 187.348ZM588.039 187.19C588.039 186.553 588.835 187.348 588.039 187.19C587.562 187.348 588.039 187.508 588.039 187.19ZM584.7 188.144C584.858 187.984 585.177 188.144 585.177 187.825C585.019 187.825 584.7 187.825 584.7 188.144ZM351.147 187.667C350.987 187.825 350.67 187.825 350.67 187.984C350.829 187.984 351.147 187.984 351.147 187.667ZM372.929 192.119C372.135 189.734 372.452 184.806 370.544 182.897C369.908 183.057 369.75 182.579 368.953 182.737C360.527 191.005 353.532 201.022 352.26 213.901C359.096 210.721 363.23 202.931 368.795 197.843C369.114 195.616 371.657 194.185 372.929 192.119ZM456.4 188.144C456.081 188.461 455.762 188.779 455.604 189.256C456.239 189.256 457.193 188.302 456.4 188.144ZM457.035 201.817C456.877 202.294 456.558 202.454 456.4 202.931C456.877 202.931 457.512 202.135 457.035 201.817ZM457.192 187.667C456.238 187.507 457.192 188.302 457.192 187.667C457.192 187.348 457.669 187.507 457.192 187.667ZM458.147 200.227C458.147 200.546 457.831 200.704 458.147 200.864C458.147 200.704 458.624 200.387 458.147 200.227ZM506.16 195.616C515.859 195.935 519.04 187.825 523.649 182.103C515.543 184.329 510.772 189.894 506.16 195.616ZM484.065 218.989C484.065 218.671 484.381 218.512 484.065 218.352C484.065 218.671 483.588 218.829 484.065 218.989ZM482.156 221.692H481.837V222.169H482.156V221.692ZM484.223 219.624C484.381 220.261 483.427 219.943 483.588 220.578C483.111 220.578 482.792 220.738 482.95 221.374C481.838 221.214 482.792 222.168 482.95 221.374C483.111 221.055 483.746 221.214 483.588 220.578C484.065 220.738 484.858 219.943 484.223 219.624ZM485.654 217.24C485.496 216.286 486.289 217.08 485.654 217.24C485.335 217.398 485.654 217.398 485.654 217.24ZM485.811 218.512C485.972 217.718 486.926 218.672 485.811 218.512C485.176 218.672 486.13 219.466 485.811 218.512ZM489.466 224.077C488.53 222.205 487.684 220.418 487.048 218.53C486.758 218.85 486.466 219.17 486.172 219.491C486.862 220.577 487.214 221.985 488.036 222.806C488.194 222.806 488.352 222.646 488.352 222.487C488.99 222.647 488.513 223.918 489.467 224.078L489.466 224.077ZM519.675 225.666C519.198 225.666 518.879 225.826 518.721 226.143C518.402 226.143 518.721 226.303 518.721 226.143C519.356 226.143 519.675 225.985 519.675 225.666ZM527.307 219.624C526.988 219.784 526.83 219.624 526.83 219.943C526.988 219.783 527.307 219.943 527.307 219.624ZM561.009 193.867C561.486 193.867 561.805 193.707 561.805 193.39C561.486 193.39 561.167 193.55 561.009 193.867ZM558.943 196.57C559.42 196.57 559.897 196.412 560.055 196.093C560.532 196.412 561.963 195.775 562.282 195.139C562.759 195.458 564.348 195.299 564.348 194.185C563.552 194.504 562.759 194.662 562.282 195.139C561.328 195.299 560.532 195.458 560.055 196.093C559.736 195.775 559.101 196.093 558.943 196.57ZM557.989 196.729C558.147 196.729 558.466 196.729 558.466 196.569C558.308 196.569 557.989 196.569 557.989 196.729ZM553.696 198.638C554.015 198.638 554.173 198.478 554.331 198.161C554.015 198.161 553.538 198.161 553.696 198.638ZM552.004 199.177C551.923 199.232 551.846 199.273 551.79 199.273C551.786 199.256 551.787 199.245 551.783 199.229C551.749 199.237 551.715 199.246 551.68 199.255C551.717 199.263 551.75 199.257 551.79 199.273C551.752 199.426 551.638 199.57 551.494 199.707C551.836 199.567 552.096 199.365 552.264 199.115C552.182 199.135 552.095 199.156 552.004 199.177ZM545.751 200.186V200.226C545.494 200.226 545.516 200.457 545.589 200.695C545.927 200.494 546.249 200.281 546.561 200.059C546.423 200.147 546.256 200.145 546.083 200.048C545.974 200.095 545.86 200.138 545.752 200.186H545.751ZM552.491 197.202C552.511 197.172 552.529 197.143 552.546 197.113C552.506 197.145 552.467 197.176 552.423 197.206C552.448 197.206 552.467 197.202 552.491 197.202ZM553.651 196.887C553.671 196.868 553.686 196.845 553.703 196.824C553.685 196.845 553.671 196.866 553.651 196.887ZM553.519 196.544C553.104 196.562 552.902 196.806 552.632 197.042C553.091 197.026 553.332 196.796 553.519 196.544ZM550.563 199.702C550.549 199.717 550.535 199.735 550.521 199.749C550.557 199.822 550.591 199.861 550.624 199.885C550.673 199.881 550.721 199.878 550.769 199.872C550.884 199.784 551.013 199.553 551.197 199.389C550.954 199.47 550.733 199.571 550.563 199.701V199.702ZM538.472 204.253C538.456 204.283 538.437 204.308 538.437 204.361C538.595 204.203 538.914 204.361 538.914 204.043C538.846 204.11 538.751 204.121 538.664 204.134C538.6 204.174 538.536 204.213 538.472 204.253ZM544.647 201.221C544.774 201.153 544.899 201.083 545.024 201.014C545.01 200.89 544.945 200.778 544.796 200.704C544.851 200.982 544.768 201.121 544.647 201.222V201.221ZM548.001 201.024C548.027 201.07 548.136 201.05 548.136 200.863C548.336 200.863 548.37 200.767 548.344 200.667C548.251 200.683 548.176 200.723 548.117 200.784C548.125 200.813 548.124 200.829 548.136 200.863C548.068 200.897 548.033 200.929 548.014 200.958C548.008 200.977 548.006 201.001 548.002 201.022L548.001 201.024ZM542.784 204.679C542.765 204.481 542.759 204.293 543.042 204.361C542.791 204.238 542.159 204.601 542.206 204.841C542.318 204.848 542.405 204.878 542.409 204.992C542.413 204.76 542.608 204.72 542.784 204.68V204.679ZM543.046 204.361C543.993 204.517 543.201 203.727 543.043 204.361C543.044 204.361 543.045 204.361 543.046 204.361ZM536.872 206.676C537.017 206.556 537.167 206.441 537.322 206.33C537.318 206.101 537.303 205.815 537.26 205.632C537.225 205.632 537.188 205.634 537.161 205.634C537.161 205.59 537.189 205.559 537.228 205.536C537.181 205.432 537.112 205.423 537.007 205.634C537.177 206.087 537.06 206.416 536.873 206.677L536.872 206.676ZM537.96 207.542C537.933 207.547 537.901 207.559 537.873 207.566C537.848 207.611 537.813 207.647 537.796 207.7C537.815 207.7 537.834 207.698 537.854 207.698C537.893 207.647 537.932 207.597 537.96 207.542C538.276 207.382 537.96 207.223 537.96 207.542ZM538.942 205.786C538.926 205.792 538.914 205.8 538.9 205.806C538.914 205.799 538.928 205.794 538.942 205.786ZM538.437 205.587V205.315C538.276 204.998 538.118 204.838 537.799 204.838C537.569 205.071 537.757 205.64 537.631 206.117C537.9 205.937 538.172 205.762 538.438 205.588L538.437 205.587ZM536.21 206.428C535.256 206.428 536.21 207.382 536.21 206.428C536.21 205.474 537.164 206.428 536.21 206.428ZM535.379 209.158C535.247 209.317 535.19 209.462 535.413 209.555C535.536 209.45 535.664 209.337 535.733 209.131C535.625 209.095 535.499 209.113 535.379 209.158ZM549.864 198.229C549.828 198.407 549.681 198.48 549.541 198.616C549.976 198.57 550.226 198.421 550.356 198.16C550.185 198.16 550.02 198.188 549.863 198.229H549.864ZM540.645 202.919C540.476 203.021 540.304 203.122 540.136 203.225C540.064 203.895 540.095 204.498 539.072 204.043C539.178 204.577 539.059 205.026 538.832 205.32C539.589 204.793 540.214 204.225 540.339 203.408C540.434 203.354 540.534 203.303 540.631 203.25C540.647 203.139 540.657 203.028 540.646 202.92L540.645 202.919ZM540.411 202.517C540.386 202.497 540.375 202.472 540.345 202.454C540.32 202.495 540.309 202.543 540.29 202.587C540.33 202.564 540.37 202.54 540.411 202.517ZM535.256 207.7C535.417 207.7 535.733 207.7 535.733 207.542C535.575 207.542 535.256 207.542 535.256 207.7ZM533.033 211.196C533.033 211.196 533.033 211.197 533.033 211.198C533.192 211.198 533.307 211.154 533.407 211.095C533.36 211.036 533.292 211.004 533.187 211.039C533.187 211.039 533.185 211.19 533.034 211.197L533.033 211.196ZM550.994 197.885C551.043 197.811 551.094 197.74 551.147 197.671C550.822 197.657 550.862 197.804 550.994 197.885ZM547.178 199.592C547.043 199.644 546.915 199.703 546.782 199.757C546.747 199.853 546.704 199.934 546.649 199.992C546.828 199.861 547.01 199.732 547.178 199.592ZM543.684 200.227C543.365 200.387 543.207 200.546 543.046 200.864C543.523 200.864 543.684 200.704 543.684 200.227C544.638 200.069 543.684 199.273 543.684 200.227ZM539.549 201.817C539.707 201.499 540.026 201.34 539.549 201.18C539.549 201.34 539.23 201.657 539.549 201.817ZM537.006 204.837C537.325 203.725 538.595 203.883 538.914 202.931C540.661 201.658 542.569 200.227 544 198.638C541.934 199.75 540.184 201.181 538.914 202.931C538.437 202.454 538.437 203.089 537.96 203.248C537.006 203.408 537.96 202.454 537.96 203.248C537.96 203.725 536.371 204.202 537.006 204.837ZM535.256 205.951C536.052 205.951 536.052 204.997 536.687 204.837C535.575 204.679 535.575 205.474 535.256 205.951ZM535.097 206.424C535.118 206.363 535.156 206.319 535.187 206.267C535.133 206.221 535.008 206.24 535.097 206.424ZM535.098 206.428C534.621 206.588 535.098 206.588 535.098 206.428V206.428ZM528.409 219.459C528.409 219.459 528.417 219.459 528.421 219.458C528.427 219.236 528.609 219.191 528.781 219.153C528.754 219.047 528.73 218.937 528.702 218.829C528.342 218.921 527.968 219.228 528.41 219.46L528.409 219.459ZM567.53 203.725C567.53 203.248 567.211 203.725 566.892 203.725C557.512 207.699 547.495 211.038 541.454 218.512C541.293 220.261 540.339 221.215 540.816 223.123C541.135 223.283 541.454 223.44 541.454 224.077C555.127 228.051 574.367 217.876 567.53 203.726V203.725ZM529.528 226.303C529.528 226.94 530.005 227.097 530.324 227.257C530.324 226.62 529.847 226.462 529.528 226.303ZM293.855 120.531C294.014 120.531 294.172 120.372 294.172 120.213C294.014 120.213 293.855 120.372 293.855 120.531ZM267.619 19.569C268.573 19.569 269.369 19.569 269.687 19.092C268.893 19.092 268.096 19.092 267.619 19.569ZM341.235 30.062C341.077 30.38 341.395 30.38 341.395 30.698C341.554 30.857 341.712 31.016 342.031 31.016C342.189 30.38 341.395 30.38 341.235 30.062ZM266.507 19.25C265.872 19.886 264.122 19.409 263.804 20.204C264.598 20.045 266.984 20.045 266.507 19.25ZM334.558 26.088C335.035 26.088 335.035 26.406 335.512 26.406V26.088C335.352 26.088 334.558 25.611 334.558 26.088ZM258.717 21.317C259.352 21.317 259.829 21.158 260.148 20.84C259.511 20.84 258.717 20.84 258.717 21.317ZM293.06 121.008C293.378 121.008 293.378 120.849 293.378 120.69C293.06 120.69 293.06 120.849 293.06 121.008ZM307.688 111.309H307.369C307.211 112.104 307.688 111.627 307.688 111.309ZM251.721 22.907C251.562 23.067 251.244 22.907 251.244 23.225C251.404 23.066 251.721 23.225 251.721 22.907ZM299.578 117.033C300.215 116.874 300.851 116.556 301.169 115.92C300.375 116.079 299.898 116.556 299.578 117.033ZM298.785 117.033C298.624 117.828 297.354 117.67 297.192 118.464C297.988 118.305 299.42 117.669 298.785 117.033ZM344.416 33.878C344.416 34.09 344.469 34.196 344.574 34.196C344.733 34.036 344.574 34.036 344.416 33.878ZM342.508 31.811C342.985 31.97 342.985 32.447 343.462 32.606C343.62 32.129 342.826 31.176 342.508 31.811ZM343.462 32.606C343.62 33.242 343.939 33.72 344.416 33.878C344.416 33.083 343.939 32.924 343.462 32.606ZM341.394 30.698C341.076 30.698 341.076 30.857 340.917 31.016C341.234 31.016 341.394 30.857 341.394 30.698ZM255.06 139.769C255.537 139.769 255.697 139.61 255.854 139.292C255.377 139.292 255.06 139.292 255.06 139.769ZM254.106 140.246C254.266 139.769 254.743 139.928 254.583 139.451C254.106 139.292 253.629 140.088 254.106 140.246ZM250.449 141.359C250.767 141.2 250.926 141.359 250.926 141.042C250.767 141.201 250.449 141.042 250.449 141.359ZM244.725 25.451C244.248 25.451 243.771 25.611 243.613 25.928C244.248 25.928 244.567 25.769 244.725 25.451ZM250.767 23.226C250.607 23.226 250.29 23.226 250.29 23.385C250.449 23.385 250.767 23.385 250.767 23.226ZM230.098 149.786C230.256 149.626 230.415 149.309 230.415 148.832H230.098C230.098 148.991 229.621 149.786 230.098 149.786ZM222.148 149.15C222.308 148.991 222.308 148.673 222.308 148.356H222.148C221.989 148.674 221.831 148.992 222.148 149.15ZM233.595 147.242C233.595 147.719 232.96 147.559 233.118 148.196C233.595 148.355 234.072 147.401 233.595 147.242ZM243.93 143.109C244.09 143.109 244.407 143.109 244.407 142.949C244.09 142.949 243.93 142.949 243.93 143.109ZM247.587 141.995C247.745 141.995 248.064 141.995 248.064 141.836C247.745 141.836 247.587 141.836 247.587 141.995ZM248.383 141.836C248.699 141.677 248.86 141.836 248.86 141.518C248.699 141.678 248.541 141.518 248.383 141.836ZM244.567 142.949C244.884 142.949 245.202 142.949 245.202 142.631C245.044 142.79 244.567 142.631 244.567 142.949ZM291.787 121.803C291.47 121.803 291.47 121.962 291.47 122.121C291.63 122.121 291.787 121.962 291.787 121.803ZM265.873 134.682C265.077 134.523 266.19 134.205 266.031 134.046C257.763 138.021 246.792 141.518 236.139 143.903C235.504 144.38 234.869 144.857 234.71 145.97C232.961 146.765 232.165 148.514 231.211 150.263C230.734 149.468 231.371 148.672 231.53 147.559C230.576 147.559 231.211 148.831 230.416 148.831V148.195C229.622 148.989 229.302 150.102 228.51 150.739C227.714 151.056 228.033 150.579 227.237 150.421C226.441 150.421 226.918 151.534 226.441 151.852C225.806 151.692 226.602 150.898 226.441 150.421C225.171 150.262 225.171 152.647 223.898 151.852C223.898 151.692 223.898 151.375 223.74 151.375C224.375 151.057 224.694 150.103 224.375 149.308C223.898 148.671 223.581 149.944 222.786 149.785C222.626 148.513 223.58 148.195 223.74 147.241C223.263 146.764 222.944 148.195 222.309 148.354C222.149 147.241 223.58 145.81 223.898 144.538C222.309 145.175 222.309 147.719 220.718 148.354C220.559 147.559 221.195 147.241 221.036 146.287C220.241 146.128 220.718 148.036 220.241 147.241C219.447 147.081 220.559 145.333 220.559 144.538C220.082 143.743 220.241 145.492 219.447 145.015C219.128 142.471 221.832 141.041 222.309 138.656C222.149 135.635 222.309 134.999 222.626 132.137C223.262 131.978 222.944 132.614 223.103 133.091C223.262 130.865 224.534 129.275 225.329 128.321V129.116C225.648 129.116 225.648 128.798 225.489 128.48C226.125 128.48 225.648 129.275 225.806 129.593C226.602 128.798 227.395 128.003 227.395 126.413C227.714 125.777 227.556 127.685 227.556 128.003C228.349 126.731 228.668 124.664 230.417 124.664C245.046 101.768 262.535 80.94 275.096 56.614C275.413 56.614 275.254 55.977 275.89 56.137C277.161 52.639 279.547 50.254 280.501 46.597C281.932 46.12 283.681 44.212 285.112 45.802C285.748 45.325 285.906 44.372 286.703 44.053C288.134 43.894 288.292 44.53 289.723 43.735C289.723 44.053 290.04 44.212 289.881 44.689C290.677 44.848 290.2 43.895 290.995 44.212C290.518 45.325 291.155 45.325 291.949 45.643C291.949 46.12 291.155 46.12 291.312 46.756C292.426 46.756 292.743 47.869 294.651 46.756C294.811 47.551 294.493 47.869 294.493 48.346C294.493 48.823 294.811 48.187 294.97 48.664C295.288 49.618 294.97 52.321 294.493 53.434C292.902 56.932 290.2 61.703 288.134 64.882C282.727 72.991 277.481 81.894 271.757 89.844C269.053 93.66 266.667 97.793 263.966 101.768C261.898 104.789 259.353 107.651 257.13 110.672C252.677 116.554 249.02 122.596 245.046 128.32C249.338 126.89 253.631 125.617 257.13 123.392C279.547 114.011 299.103 101.928 315.48 86.664C321.045 80.304 327.087 74.58 330.426 66.153C333.606 60.906 336.15 55.66 335.196 47.233C332.174 34.99 316.116 31.334 301.17 30.538C287.337 29.743 273.345 31.969 261.898 34.672C258.241 35.467 254.902 36.739 251.245 37.852C249.337 38.647 248.223 39.919 246.476 40.873C245.68 42.144 245.522 43.894 244.091 44.53C243.137 44.53 243.772 43.894 243.454 43.576C240.909 45.484 237.093 46.915 234.233 46.756C233.756 45.643 232.007 45.643 231.053 45.007C230.099 43.735 229.145 42.463 228.51 41.032V37.216C231.688 33.242 235.346 29.902 240.752 27.994C241.864 27.517 242.341 26.404 243.614 25.927C243.614 26.245 243.295 26.245 243.614 26.404C259.83 20.045 280.818 17.341 298.309 17.182C304.032 17.977 311.186 17.977 317.545 19.567C317.545 19.726 317.864 19.726 317.864 20.044C316.115 19.726 314.367 19.407 312.776 19.09C314.367 20.361 317.229 20.203 319.137 20.839C319.772 20.521 318.341 20.203 317.864 20.203V20.044C319.614 20.044 321.998 21.157 323.747 21.793C323.747 22.111 323.429 21.952 323.27 22.27C324.224 22.747 325.338 22.906 326.609 23.224C327.086 22.747 325.178 22.906 325.338 22.111C329.314 23.701 332.334 24.972 335.514 27.039C335.831 27.039 335.354 26.721 335.514 26.403C336.15 26.562 335.991 27.516 336.308 27.993C336.627 27.993 336.627 27.516 336.785 27.357C337.262 27.357 336.944 27.834 336.785 27.993C338.374 27.993 339.805 29.742 340.919 31.014C342.35 33.24 344.576 33.558 345.053 36.897C344.735 36.897 344.735 36.579 344.418 36.42C344.259 36.897 345.212 37.851 345.053 36.897C345.689 38.01 346.007 39.123 346.484 40.395C346.803 38.328 345.053 36.261 344.576 34.194C347.28 39.122 349.666 45.164 350.143 51.842C349.982 51.683 349.982 51.206 349.666 51.048C349.505 51.525 349.666 51.842 350.143 51.842C350.301 54.546 349.824 57.407 349.824 59.156C348.87 62.017 347.598 65.674 346.962 68.059C344.577 73.306 341.556 78.076 338.694 82.687H338.059C337.263 84.595 336.309 86.503 334.56 87.298C329.314 93.976 323.271 100.176 316.276 105.106C315.957 105.265 315.957 105.583 315.957 105.9C315.799 105.741 315.799 105.583 315.799 105.424C313.254 107.491 310.551 109.398 307.689 111.306C307.847 111.147 308.008 110.988 308.008 110.67C307.531 110.67 307.212 110.829 307.37 111.306C306.577 112.101 306.258 113.214 304.986 113.373C304.827 112.737 305.463 112.896 305.463 112.419C304.192 113.055 303.237 113.85 302.283 114.804C301.647 114.963 301.169 115.122 301.169 115.758C299.101 116.552 297.989 117.029 296.558 118.461C295.764 118.938 294.65 118.938 294.173 119.733C295.287 119.573 296.081 119.096 296.558 118.461H297.193C296.558 119.256 295.446 119.892 294.173 120.21C294.173 120.05 293.856 120.05 293.538 120.05C293.538 120.262 293.644 120.421 293.856 120.527C293.696 120.687 293.538 120.687 293.379 120.687C292.265 120.527 288.61 122.913 286.543 124.184C285.271 124.821 283.998 124.821 283.521 125.933C281.136 126.092 278.912 128 276.843 129.113C273.982 130.067 271.915 131.18 269.53 132.929C268.895 132.134 267.783 132.769 267.306 133.565C268.737 133.406 266.192 133.883 265.875 134.678L265.873 134.682ZM320.566 21.317C321.52 21.317 321.68 21.953 322.634 21.794C322.792 22.112 322.951 21.794 322.634 21.794C322.315 21.476 321.043 20.84 320.566 21.317ZM319.613 21.159C319.771 21 320.09 21.159 320.09 20.841C319.929 21.001 319.613 20.841 319.613 21.159ZM313.889 20.363C314.206 20.363 314.524 20.523 314.683 20.204C314.366 20.204 314.047 20.204 313.889 20.363ZM305.621 18.456C305.621 18.138 306.098 18.296 305.621 18.456C305.302 18.456 305.779 18.615 305.621 18.456ZM291.31 18.615C290.993 18.297 290.198 18.456 289.879 18.774C290.356 18.774 291.31 19.092 291.31 18.615C291.629 18.615 291.787 18.933 292.264 18.774C292.901 18.934 292.901 18.456 293.537 18.615C297.669 18.615 292.264 17.979 291.31 18.615ZM300.374 18.615C298.943 18.615 297.354 18.138 295.603 18.615C297.192 18.456 299.577 19.569 300.374 18.615ZM308.007 19.569C310.073 19.728 312.139 20.523 313.73 20.046C309.438 19.251 304.826 18.774 300.692 18.615C301.963 19.728 304.985 19.251 308.007 19.569ZM309.596 20.046C309.438 20.046 309.119 20.046 309.119 20.205C309.277 20.205 309.596 20.205 309.596 20.046ZM327.244 24.815C322.473 22.43 315.797 20.84 309.753 20.363C316.114 21.317 322.314 23.384 327.244 24.815ZM327.881 24.974C327.72 25.134 327.404 24.974 327.404 25.292C327.562 25.133 327.881 25.292 327.881 24.974ZM333.604 27.041C333.127 27.041 333.286 26.405 332.65 26.564C332.65 26.405 332.49 26.405 332.333 26.405C332.014 26.405 332.173 26.087 332.333 26.405C332.333 26.564 332.491 26.564 332.65 26.564C332.809 26.882 333.444 27.678 333.604 27.041ZM333.444 87.46C333.444 87.778 332.967 88.096 333.444 88.255C333.444 87.937 333.763 87.619 333.444 87.46ZM335.035 85.87C334.558 85.87 334.398 86.029 334.24 86.347C334.717 86.347 334.875 86.188 335.035 85.87ZM343.303 33.878C343.303 34.991 343.78 35.786 344.417 36.263C344.417 35.149 343.781 34.514 343.303 33.878C343.143 33.56 342.985 34.037 343.303 33.878ZM342.348 71.719H342.825V71.242H342.348V71.719ZM339.327 30.221C339.646 31.651 340.758 32.288 341.712 33.242C341.712 33.56 341.872 33.242 341.712 33.242C341.235 31.97 340.281 31.175 339.327 30.221ZM338.85 77.92C339.327 77.92 339.646 77.761 339.646 77.284C339.011 77.125 339.169 77.761 338.85 77.92ZM337.58 82.054C338.85 81.259 339.327 79.669 340.281 78.556C340.6 77.442 342.666 75.694 341.872 74.899C340.758 77.602 339.011 79.669 337.58 82.054ZM336.784 28.632C336.466 28.632 336.466 28.314 336.149 28.155C335.99 28.632 336.784 29.268 336.784 28.632ZM336.149 84.121C336.307 84.121 336.307 83.803 336.307 83.644C336.784 83.485 336.943 83.326 337.103 83.008C336.626 82.849 336.307 83.167 336.307 83.644C336.149 83.644 336.149 83.962 336.149 84.121C336.149 84.439 335.83 84.28 336.149 84.121ZM335.512 82.69C335.194 81.736 336.148 82.69 335.512 82.69C335.194 82.849 335.512 83.008 335.512 82.69ZM334.081 85.075C334.717 84.757 335.672 83.644 335.195 83.167C334.876 83.803 334.241 84.121 334.081 85.075ZM333.921 87.142C333.604 87.142 333.921 87.301 333.921 87.142C334.081 87.142 334.081 86.982 334.081 86.824C334.081 86.506 334.398 86.665 334.081 86.824C333.921 86.824 333.921 86.983 333.921 87.142ZM332.332 87.301C332.967 86.824 333.603 86.347 333.921 85.393C333.127 85.87 332.49 86.506 332.332 87.301ZM332.332 89.368C331.536 89.368 331.378 89.845 331.059 90.322C331.855 90.322 332.013 89.686 332.332 89.368ZM331.059 89.526C331.218 89.208 331.378 89.049 331.536 88.731C331.218 88.731 331.218 88.413 330.901 88.413C331.059 88.731 330.582 89.685 331.059 89.526ZM329.947 91.912C329.842 91.912 329.789 91.965 329.789 92.071C329.312 92.071 329.312 92.231 329.312 92.548C328.993 92.707 329.312 92.866 329.312 92.548C329.47 92.389 329.628 92.389 329.789 92.071C329.895 92.071 329.947 92.018 329.947 91.912C330.266 91.753 330.741 91.594 330.582 90.958C330.582 90.64 331.059 90.799 330.582 90.958H330.424C330.424 91.435 329.789 91.276 329.947 91.912ZM328.993 90.958C329.789 91.117 330.424 90.322 329.47 90.004C329.312 90.322 329.151 90.64 328.993 90.958ZM327.881 93.979C327.881 93.661 328.197 93.82 327.881 93.979C326.927 93.979 327.881 94.933 327.881 93.979ZM322.634 98.748C323.746 97.158 325.654 96.364 326.291 94.456C326.45 94.456 326.45 94.297 326.608 94.138C327.085 94.298 327.72 93.502 327.245 93.184C327.085 93.661 326.608 93.661 326.608 94.138C326.291 94.138 326.291 94.298 326.291 94.456C325.337 95.887 322.792 97.159 322.634 98.748ZM323.588 96.522H324.065V96.045H323.588V96.522ZM322.157 98.271C322.474 97.635 323.269 97.635 323.269 96.681C322.634 96.681 321.838 97.953 322.157 98.271ZM321.997 98.908H321.52V99.385H321.997V98.908ZM320.566 99.225C321.203 99.225 321.361 98.748 321.68 98.589C321.043 98.43 320.726 98.748 320.566 99.225ZM313.889 105.108C314.206 105.108 314.366 105.426 314.366 105.108C314.366 104.949 314.047 104.79 313.889 105.108ZM306.098 111.945C306.256 111.945 306.575 111.945 306.575 111.786C306.415 111.786 306.098 111.786 306.098 111.945ZM273.026 129.912C273.026 129.594 273.343 129.435 273.026 129.117C272.866 129.435 272.549 129.753 273.026 129.912ZM228.348 149.15C228.19 149.15 227.871 149.15 227.871 149.31C228.032 149.31 228.348 149.31 228.348 149.15ZM228.984 144.698C228.825 145.175 228.509 145.492 228.348 145.969C228.825 145.969 229.621 145.175 228.984 144.698ZM231.21 145.653C231.37 146.13 230.575 146.606 231.21 146.766C231.37 146.448 232.006 145.812 231.21 145.653ZM339.327 28.472C339.327 28.154 339.011 28.313 338.85 28.154C338.85 28.472 339.169 28.472 339.327 28.472ZM351.093 50.732C351.093 50.414 351.093 48.983 350.775 49.778C350.775 50.096 350.775 51.368 351.093 50.732ZM336.626 27.041C336.626 26.882 336.149 26.723 336.149 27.041C336.466 27.041 336.466 27.359 336.626 27.041ZM329.47 22.749C328.835 22.908 328.197 22.113 327.881 22.749C328.516 22.59 329.151 23.385 329.47 22.749ZM330.266 22.907C329.947 23.067 329.789 22.907 329.789 23.225C329.947 23.066 330.266 23.225 330.266 22.907ZM324.859 21.317C324.859 21.158 324.541 20.999 324.541 21.317C324.699 21.317 324.859 21.635 324.859 21.317ZM287.336 124.665C287.336 123.87 288.609 124.347 288.448 123.711C287.971 123.711 286.701 124.029 287.336 124.665ZM286.859 124.665C286.701 124.665 286.542 124.665 286.542 124.825C286.701 124.825 286.859 124.825 286.859 124.665ZM301.169 115.761V115.92C301.646 115.761 302.123 115.602 302.283 115.284C301.647 115.125 301.487 115.602 301.169 115.761ZM290.516 122.598C291.153 122.598 291.47 122.439 291.47 122.121C290.993 121.962 290.676 122.121 290.516 122.598ZM245.202 25.292C245.044 25.133 244.884 25.292 244.725 25.451C245.044 25.451 245.202 25.451 245.202 25.292ZM290.356 122.757C290.463 122.757 290.516 122.704 290.516 122.597C290.356 122.438 290.356 122.597 290.356 122.757ZM303.236 114.489C304.031 114.33 304.507 114.012 304.985 113.376C304.191 113.535 303.554 114.012 303.236 114.489ZM302.759 114.807C302.917 114.807 303.077 114.648 303.236 114.489C302.917 114.489 302.759 114.649 302.759 114.807ZM272.072 18.615C271.912 18.615 271.595 18.615 271.595 18.774C271.755 18.774 272.072 18.774 272.072 18.615ZM302.282 115.284C302.6 115.284 302.759 115.125 302.759 114.807H302.282V115.284ZM324.065 21.794V22.271C324.382 22.271 325.177 22.43 324.859 21.794H324.065ZM324.223 21.159C323.905 21.159 323.269 20.205 323.111 20.841C323.428 20.841 324.065 21.795 324.223 21.159ZM321.997 20.205C321.68 20.205 321.361 20.205 321.203 20.364C321.52 20.364 321.838 20.524 321.997 20.205ZM321.043 20.046C320.726 20.046 320.407 19.886 320.407 20.205C320.566 20.205 321.043 20.205 321.043 20.046ZM385.909 64.883C385.751 64.883 385.59 64.883 385.59 65.042C385.751 65.042 385.909 65.042 385.909 64.883ZM385.112 63.77C384.796 63.61 384.635 63.293 384.319 63.293C384.158 63.77 384.954 64.247 385.112 63.77ZM394.495 63.293C394.811 62.975 394.653 62.339 394.176 62.179C394.334 62.497 394.018 63.293 394.495 63.293ZM345.206 107.017C345.048 92.071 351.725 82.213 359.833 72.196H360.152C359.993 72.514 360.152 72.673 360.31 72.673C360.787 72.514 360.47 72.196 360.152 72.196C360.947 71.242 361.583 69.97 362.695 69.016C363.172 69.652 361.741 70.129 361.741 70.765C361.583 70.925 361.264 71.083 361.264 71.242C361.264 71.879 361.901 71.242 361.741 70.765C364.922 68.221 367.306 64.564 372.076 63.293C372.236 62.975 372.553 62.656 372.871 62.339C376.368 62.656 377.482 62.179 380.662 63.452C380.82 62.657 379.39 63.293 379.55 62.339C381.935 63.133 383.682 64.406 385.274 65.837C387.498 64.724 388.929 63.133 391.314 62.179C391.791 62.179 391.314 63.133 391.949 63.133C392.268 63.133 392.426 62.816 392.426 62.339C393.541 62.816 394.653 65.2 396.084 63.929C396.403 64.247 396.403 64.883 397.038 64.883C396.88 65.519 396.242 65.677 396.561 66.791C396.719 67.427 397.038 66.473 397.357 66.791C397.357 67.586 397.515 68.221 398.15 68.381C397.992 69.176 397.038 70.288 397.834 70.765C394.176 81.1 389.405 91.116 390.359 103.996C395.925 102.246 399.58 98.272 403.078 94.456C403.397 94.456 403.716 94.456 403.874 94.615C406 92.312 408.275 90.108 410.56 87.92C411.14 86.3 411.686 84.753 412.139 83.326C414.366 76.648 415.794 69.335 419.133 63.77C420.725 63.452 421.837 62.656 423.111 62.179C426.608 62.497 429.947 64.247 431.059 68.062C431.059 71.401 430.424 73.627 429.47 76.012C427.085 82.69 423.588 89.526 421.995 96.045C429.628 88.572 436.622 80.304 443.62 72.354H444.097V72.831C444.416 72.831 444.574 72.672 444.574 72.354C446.321 71.241 447.436 68.38 449.345 68.22C451.569 65.359 455.385 62.178 457.928 59.635H458.089C457.612 61.065 455.862 61.384 456.02 62.973C455.704 62.973 455.862 62.496 455.862 62.178C455.546 62.178 455.385 62.655 455.385 62.973C454.908 63.291 454.431 63.609 454.273 64.086C453.954 64.246 454.115 64.404 453.954 64.563C453.477 64.881 453.161 65.358 452.842 65.835C453.161 66.471 453.319 65.04 453.954 65.358C453.954 66.152 453.477 66.629 453.319 67.425C453.161 67.265 453.161 67.425 453 67.584C452.842 67.584 452.842 67.743 452.842 67.902C452.207 67.902 452.046 68.379 451.73 68.696C452.046 69.173 452.842 68.378 452.842 67.902C453 67.902 453 67.742 453 67.584C453.213 67.584 453.319 67.531 453.319 67.425C454.115 67.107 454.592 66.63 454.75 65.835C455.862 65.517 456.658 64.404 457.451 63.291H457.612C457.77 63.608 458.089 63.45 458.405 63.291V63.927C459.201 63.291 459.359 61.86 460.632 61.701C460.632 62.177 460.313 62.337 460.155 62.814C459.52 63.131 459.043 63.608 458.724 64.404C458.566 64.563 458.405 64.722 458.405 65.04C457.77 65.04 457.451 65.358 457.451 65.994C456.974 65.835 456.974 66.153 456.974 66.471C456.869 66.471 456.816 66.524 456.816 66.63C456.816 67.107 456.974 66.63 456.974 66.471C457.135 66.312 457.451 66.312 457.451 65.994C457.77 65.835 458.089 65.517 458.405 65.04C458.566 65.04 458.566 64.881 458.724 64.881V65.358C458.566 65.358 458.405 65.517 458.405 65.835C458.089 65.835 457.928 65.994 457.928 66.152C458.247 66.312 458.247 65.993 458.405 65.835C458.724 65.835 458.724 65.517 458.724 65.358C459.201 65.358 459.52 64.722 458.724 64.881V64.404C459.359 63.927 459.997 63.609 460.155 62.814C461.267 62.177 462.063 61.224 462.859 60.27C463.175 61.383 461.267 62.019 460.79 63.291C460.155 63.131 460.313 63.927 459.997 64.085C459.678 64.085 459.52 64.245 459.52 64.403C459.52 64.721 459.836 64.403 459.997 64.085C460.632 64.245 460.632 63.608 460.79 63.291C462.221 62.973 462.221 61.383 463.652 61.224V61.86C464.129 61.86 464.129 61.224 463.652 61.224C463.813 60.906 463.971 60.429 464.448 60.429C464.29 60.906 464.29 61.065 464.448 61.383C464.129 61.86 463.017 63.768 462.698 62.973C462.221 63.132 462.54 64.086 462.698 64.086C463.813 63.45 464.606 62.178 466.195 61.86C465.083 62.973 463.813 63.609 462.859 64.881C463.494 65.517 463.971 63.927 464.767 63.927V64.404C464.66 64.404 464.554 64.457 464.448 64.563C464.129 64.723 464.606 64.881 464.448 64.563C464.767 64.723 464.767 64.563 464.767 64.404H465.244C465.244 63.927 465.083 63.927 464.767 63.927C464.925 63.291 465.721 63.132 465.879 62.496C466.356 63.291 465.402 64.563 464.925 65.04C465.244 65.676 465.402 64.563 465.879 64.881C464.448 66.312 463.494 69.173 462.063 69.81V70.763C448.229 85.55 436.464 102.244 422.156 116.395C420.248 116.872 419.294 118.462 417.385 118.939C415.635 118.621 414.842 118.939 412.934 118.939C411.98 118.303 411.026 117.826 409.753 117.508C407.722 115.349 406.015 112.671 405.564 109.335C405.361 109.47 405.166 109.597 404.986 109.717C402.443 112.579 399.103 114.487 395.606 116.395C393.221 116.872 391.471 117.19 389.405 117.349C381.614 116.395 377.163 111.943 376.844 103.516C376.05 103.516 376.05 103.993 376.209 104.787C371.598 109.558 366.668 114.009 359.355 116.235C351.564 116.235 346.636 113.373 345.205 107.013L345.206 107.017ZM462.86 62.497C463.018 62.179 463.337 62.179 463.337 61.861C462.86 61.702 462.383 62.497 462.86 62.497ZM462.064 64.564C461.745 64.882 461.745 65.2 462.222 65.359C462.064 66.313 462.86 65.359 462.222 65.359C462.383 65.199 462.541 64.882 462.541 64.564H462.064ZM461.744 64.087C461.905 64.087 462.221 64.087 462.221 63.928C462.063 63.928 461.744 63.928 461.744 64.087ZM461.744 65.36C461.428 65.36 461.109 65.519 461.109 65.837H460.79C460.951 65.996 460.79 65.996 460.632 65.996V66.473C461.109 66.632 461.109 66.155 461.109 65.837C461.586 65.837 461.744 65.677 461.744 65.36ZM460.155 64.883C460.79 64.724 462.063 63.77 461.586 63.293C461.267 63.929 460.474 64.247 460.155 64.883ZM459.678 66.631C459.678 66.154 460.313 66.313 460.155 65.837C460.155 65.519 460.474 65.677 460.155 65.837C459.836 65.837 459.043 66.473 459.678 66.631ZM459.201 67.427C459.201 67.586 459.359 67.744 459.52 67.904C459.52 67.586 459.836 67.427 459.997 67.109C459.52 67.109 459.52 67.427 459.201 67.427C458.882 66.632 458.566 68.063 459.201 67.427ZM457.928 69.493C457.928 69.175 458.247 69.334 457.928 69.493C457.135 69.493 458.089 70.447 457.928 69.493ZM456.497 67.904C456.974 68.063 457.612 67.267 456.974 67.109C456.974 67.427 456.658 67.586 456.497 67.904ZM455.862 66.631C455.862 65.995 457.293 65.518 456.497 64.882C456.658 65.676 455.069 65.836 455.862 66.631ZM453.319 66.154C453.319 65.995 453.638 66.154 453.319 66.154C453 66.314 453.319 66.472 453.319 66.154ZM358.244 102.723C365.08 99.543 369.214 91.753 374.779 86.665C375.098 84.439 377.641 83.008 378.913 80.941C378.119 78.557 378.436 73.628 376.528 71.719C375.891 71.879 375.733 71.401 374.937 71.56C366.512 79.828 359.516 89.844 358.244 102.723ZM356.653 76.807C356.813 76.807 357.13 76.807 357.13 76.489C356.97 76.648 356.653 76.648 356.653 76.807ZM384.158 64.406C384.158 63.611 383.204 62.498 382.727 62.816C383.365 63.293 383.523 64.087 384.158 64.406ZM454.273 64.086C454.273 64.404 454.115 64.564 453.954 64.564V65.041C454.273 65.041 455.227 64.086 454.273 64.086ZM458.405 60.907C458.089 60.907 458.089 61.066 458.089 61.225C458.247 61.225 458.405 61.065 458.405 60.907ZM458.724 62.974V62.497C458.247 62.497 458.405 62.815 458.405 63.292H458.566C458.566 62.974 458.724 62.974 458.724 62.974ZM449.66 66.472C449.183 66.472 448.867 66.631 449.025 67.108C449.344 66.949 449.502 66.79 449.66 66.472ZM445.371 70.765C445.052 71.56 444.256 71.56 444.098 72.355H444.575C444.417 71.561 446.006 71.402 445.371 70.765ZM455.546 63.451C455.704 63.133 455.546 63.133 455.385 62.974V63.451H455.546ZM449.025 67.108C448.548 67.267 448.391 67.426 448.23 67.903C448.707 67.903 449.025 67.585 449.025 67.108ZM455.546 63.451C455.704 64.246 454.908 63.928 455.069 64.882C456.339 63.769 457.451 62.655 458.089 61.225C456.974 61.384 456.974 62.655 456.02 62.974C456.02 63.292 456.02 63.61 455.546 63.451ZM454.75 65.36C454.908 65.2 455.069 65.042 455.069 64.883C454.75 64.724 454.75 65.042 454.75 65.36ZM454.75 65.837V65.36C454.431 65.36 454.431 65.837 454.75 65.837ZM455.069 63.77H454.908C454.908 63.929 455.069 63.77 455.069 63.77ZM461.744 60.749C461.586 60.749 461.428 60.749 461.267 60.908C461.586 61.067 461.744 60.908 461.744 60.749ZM451.092 64.883C450.882 64.883 450.776 64.936 450.776 65.042C450.934 65.201 450.934 65.042 451.092 64.883ZM455.069 63.77C455.385 63.77 455.385 63.61 455.385 63.452C455.227 63.452 455.227 63.611 455.069 63.77ZM465.245 60.749C465.084 60.749 464.926 60.749 464.926 60.908C465.245 61.067 465.245 60.908 465.245 60.749ZM459.998 59.795C459.998 59.477 460.314 59.477 460.475 59.159C459.998 58.999 459.36 59.795 459.998 59.795ZM458.724 59.318C458.882 59 459.201 59 459.201 58.682C458.724 58.522 458.247 59.318 458.724 59.318ZM459.998 58.045C459.521 57.886 459.202 58.205 459.202 58.682C459.521 58.522 459.837 58.364 459.998 58.045ZM451.73 64.406C451.73 64.088 452.684 63.77 451.888 63.452C451.888 63.77 450.934 64.247 451.73 64.406ZM481.619 61.385C488.298 60.59 489.567 54.549 493.542 51.209C492.907 50.255 494.18 49.778 494.496 48.665C494.18 48.824 494.019 48.665 494.019 48.506C494.496 48.188 494.973 47.711 495.134 46.915C494.815 46.279 494.18 47.392 494.18 46.439C493.703 46.121 493.226 47.075 493.065 46.439C493.384 45.962 494.18 45.962 494.18 45.008C493.065 44.848 492.43 46.279 491.953 45.803C492.114 44.849 493.384 45.167 493.542 44.213C492.907 44.054 491.795 44.849 492.43 43.896C491.476 43.736 491.795 44.69 490.999 44.532C491.16 43.419 492.43 43.578 492.749 42.783C488.775 44.055 485.436 45.009 482.096 47.076C482.096 46.916 482.254 46.916 482.254 46.599C479.234 48.348 475.26 49.461 474.783 54.231C475.099 56.457 476.691 57.411 477.484 59.319C479.234 59.637 480.507 60.432 481.619 61.386V61.385ZM457.77 86.665C462.063 80.464 464.607 72.514 471.601 68.858C471.601 69.335 470.966 69.176 471.124 69.812C471.285 70.448 471.443 69.335 471.92 69.494C472.078 70.288 471.443 70.13 471.285 70.765C471.601 70.925 472.713 69.97 473.19 69.494C473.667 70.288 472.078 70.765 472.239 71.561C473.19 71.084 473.828 70.13 475.259 69.971C475.259 70.448 474.94 71.402 475.575 71.243C475.736 72.038 474.94 71.88 474.782 72.515C475.259 72.992 476.213 72.038 477.325 72.355C478.279 72.355 476.69 72.992 476.848 73.469C477.006 74.105 477.325 73.151 477.96 73.469C477.96 74.9 478.437 75.218 478.914 75.695C478.756 76.649 477.802 77.603 478.598 78.239C473.189 86.666 467.149 94.298 464.129 105.109C477.644 100.975 487.181 91.117 498.788 84.439H498.949C498.949 85.393 497.676 85.076 497.676 86.029C498.682 85.527 499.555 84.924 500.388 84.271C504.753 76.524 510.538 69.664 516.277 64.883C516.593 64.883 516.754 64.883 516.912 65.042C520.251 61.862 525.976 62.816 530.269 64.565C536.31 46.916 545.212 31.812 554.434 18.297C554.753 18.297 554.911 18.457 555.072 18.615C555.388 17.025 556.503 16.548 556.98 15.435C557.457 15.275 557.615 15.435 557.934 15.594C558.092 14.958 558.727 14.799 558.888 14.004C559.204 14.163 559.046 14.958 559.204 15.435C560 14.798 559.365 14.004 559.681 12.891C560.796 13.208 561.431 11.46 562.224 10.824C564.77 10.187 567.314 7.96201 569.857 10.506C570.653 9.71101 568.426 10.188 568.903 8.91602C570.018 9.39302 570.496 10.187 571.13 10.983C572.561 10.029 574.308 13.527 574.15 15.753C575.262 15.276 573.354 12.892 575.104 13.527V13.686H574.785C574.308 13.846 574.785 14.64 575.104 14.64C575.739 14.481 574.785 14.163 575.104 13.686C577.331 17.661 576.058 21.159 574.785 25.611C574.946 25.77 575.104 25.929 575.262 25.929C574.785 27.201 574.308 27.837 574.627 29.586C574.308 29.427 574.15 29.268 574.15 28.791C573.831 29.586 573.515 30.222 573.515 31.176C572.719 31.335 573.196 31.494 573.196 32.129C573.515 31.97 573.354 31.493 573.515 31.176C574.15 31.971 572.877 34.515 571.926 34.992C570.176 41.193 567.633 45.645 564.293 50.891C563.497 53.118 563.02 55.343 561.589 56.297V57.41C558.727 60.113 557.934 64.406 554.911 67.267C554.753 69.017 553.322 69.652 553.164 71.242C551.733 71.56 552.049 73.468 550.779 73.945C547.917 81.1 541.399 84.915 539.968 93.66C540.126 99.225 538.376 105.267 539.649 110.355C542.192 111.468 543.781 116.238 542.034 119.577C541.611 119.365 541.399 119.577 541.399 120.214C539.491 120.532 538.695 120.532 536.31 120.054C535.991 120.372 536.31 120.531 536.31 121.167C529.792 120.849 526.93 112.899 527.407 106.222C524.226 108.289 521.047 112.423 517.547 114.967C514.527 116.398 511.984 118.306 508.487 119.101C506.102 119.101 505.148 118.783 503.24 119.101C503.24 118.624 501.967 118.307 501.967 118.624C501.49 117.671 500.378 117.194 499.582 116.557C498.789 116.717 499.743 117.034 499.582 117.511C498.47 116.398 497.674 115.285 496.085 114.65C495.131 112.742 494.177 110.834 493.542 108.608C493.886 106.545 493.655 104.567 493.735 102.67C493.536 102.607 493.429 102.43 493.065 102.248C493.065 102.566 492.749 102.725 493.226 102.725C484.958 108.926 477.645 116.24 465.877 118.943C456.655 119.42 453.158 114.014 451.092 107.177C451.569 105.269 451.411 104.156 451.569 102.566C453.158 96.683 455.543 92.232 457.77 86.667V86.665ZM575.105 21.476C574.309 21.636 575.263 22.43 575.105 21.476C575.105 21.317 575.424 21.476 575.105 21.476ZM575.105 17.661C575.424 18.297 574.947 18.297 575.105 19.251C575.74 19.569 575.74 17.343 575.105 17.661ZM575.74 17.025C575.263 16.707 575.74 15.275 574.786 15.435C574.628 16.23 575.105 17.661 575.74 17.025ZM572.085 20.363C572.243 20.681 572.401 20.363 572.085 20.363C571.45 20.363 572.243 19.409 572.085 20.363ZM566.361 32.924C566.519 32.924 566.838 32.924 566.838 32.765C566.68 32.765 566.361 32.765 566.361 32.924ZM564.93 27.678C565.726 27.678 564.453 28.314 565.249 28.473C565.726 28.314 565.407 26.883 564.93 27.678ZM550.622 53.434V53.594C549.507 54.865 551.734 53.117 550.622 53.434ZM553.165 49.936C552.688 50.096 553.165 50.254 553.165 49.936C553.004 49.618 553.481 49.777 553.165 49.936ZM560.636 40.079C560.478 40.079 560.159 40.079 560.159 40.238C560.32 40.238 560.636 40.238 560.636 40.079ZM562.863 34.832C562.863 34.514 562.863 34.355 562.544 34.355C562.544 34.673 562.386 34.991 562.702 34.991C562.702 34.885 562.756 34.832 562.863 34.832ZM563.34 39.602C563.34 39.761 563.34 39.92 563.179 39.92V40.238C563.656 40.715 563.817 39.602 563.34 39.602ZM563.34 12.414C563.817 12.414 563.817 12.254 563.817 11.937C563.817 11.3 564.771 12.096 563.817 11.937H563.34V12.414ZM562.225 12.096C562.544 12.255 562.863 13.368 563.179 12.573C562.863 12.573 562.544 11.46 562.225 12.096ZM560.478 14.481C560.478 13.845 560.32 13.527 560.001 13.527C559.843 14.004 560.001 14.321 560.478 14.481ZM556.504 17.184C556.981 17.343 556.981 17.025 556.981 16.707C556.981 16.389 557.297 16.548 556.981 16.707H556.504V17.184ZM547.598 32.765C547.759 32.765 548.075 32.765 548.075 32.606C547.917 32.606 547.598 32.606 547.598 32.765ZM542.989 62.816C550.937 50.255 559.682 37.535 563.656 22.431C562.386 24.18 561.274 26.088 560.001 27.678C559.205 27.678 560.159 26.724 560.001 27.678C558.412 30.381 557.458 32.606 555.55 34.833C554.596 38.967 552.05 39.921 551.257 44.213C548.076 48.824 546.009 55.184 542.989 62.816ZM505.941 105.267C510.711 104.154 513.893 100.656 516.913 97.476C519.933 94.455 522.953 90.957 525.338 87.3C525.657 83.802 526.611 78.396 524.861 74.262C514.847 80.781 508.326 92.546 505.941 105.266V105.267ZM496.723 86.665C497.2 86.983 497.677 86.188 497.2 86.028C497.042 86.346 496.723 86.505 496.723 86.665ZM495.292 89.526C496.445 89.101 497.552 88.373 498.648 87.54C498.93 86.969 499.229 86.406 499.527 85.842C498.106 87.081 496.59 88.303 495.291 89.525L495.292 89.526ZM494.657 89.686C494.657 90.004 494.657 90.322 494.815 90.322C494.815 90.322 494.973 90.163 495.134 90.163C495.134 89.845 494.973 89.686 494.657 89.686ZM493.703 102.087C493.717 102.157 493.737 102.205 493.76 102.244C493.765 102.174 493.774 102.105 493.78 102.036C493.754 102.052 493.729 102.071 493.703 102.087ZM537.107 120.372C536.788 120.849 537.584 121.485 537.742 120.849C537.423 120.849 537.423 120.531 537.107 120.372ZM500.22 118.146C500.22 118.146 501.013 118.306 500.855 118.464C501.49 117.828 500.059 117.828 500.22 118.146ZM576.694 13.527V14.004C576.855 14.004 577.013 14.163 577.171 14.163C577.171 13.845 577.171 13.369 576.694 13.527ZM577.171 13.368C577.013 12.891 577.332 12.096 576.694 12.414C576.694 12.731 576.855 13.208 577.171 13.368ZM315.827 285.398H319.123V273.773H333.429V270.766H319.123V262.146H336.11V259.139H315.827V285.398ZM373.569 272.251C373.569 279.64 366.941 285.652 358.756 285.652C350.571 285.652 343.98 279.64 343.98 272.251C343.98 264.862 350.608 258.85 358.756 258.85C366.904 258.85 373.569 264.862 373.569 272.251ZM370.237 272.251C370.237 266.528 365.093 261.857 358.756 261.857C352.455 261.857 347.312 266.528 347.312 272.251C347.312 277.974 352.455 282.647 358.756 282.647C365.093 282.647 370.237 278.011 370.237 272.251ZM402.956 275.402C402.956 279.423 399.37 282.647 394.952 282.647C390.568 282.647 386.946 279.424 386.946 275.402V259.139H383.65V275.402C383.65 281.053 388.721 285.652 394.951 285.652C401.216 285.652 406.287 281.053 406.287 275.402V259.139H402.954V275.402H402.956ZM437.919 279.603L420.062 259.139H417.599V285.398H420.895V264.934L438.752 285.398H441.214V259.139H437.918L437.919 279.603ZM477.661 272.251C477.661 279.496 471.177 285.398 463.173 285.398H452.886V259.139H463.173C471.177 259.139 477.661 265.043 477.661 272.251ZM474.366 272.251C474.366 266.674 469.332 262.146 463.174 262.146H456.185V282.393H463.174C469.332 282.393 474.366 277.864 474.366 272.251ZM499.839 259.139L513.023 285.398H509.364L505.995 278.662H491.074L487.704 285.398H484.047L497.229 259.139H499.839ZM504.475 275.656L498.536 263.812L492.595 275.656H504.476H504.475ZM516.04 262.146H526.29V285.398H529.623V262.146H539.873V259.139H516.041V262.146H516.04ZM549.37 285.398H552.667V259.139H549.37V285.398ZM592.731 272.251C592.731 279.64 586.103 285.652 577.918 285.652C569.733 285.652 563.14 279.64 563.14 272.251C563.14 264.862 569.768 258.85 577.918 258.85C586.068 258.85 592.731 264.862 592.731 272.251ZM589.398 272.251C589.398 266.528 584.255 261.857 577.917 261.857C571.615 261.857 566.471 266.528 566.471 272.251C566.471 277.974 571.614 282.647 577.917 282.647C584.255 282.647 589.398 278.011 589.398 272.251ZM623.493 259.139V279.603L605.638 259.139H603.174V285.398H606.469V264.934L624.326 285.398H626.788V259.139H623.493Z" fill="white"/>
</svg>
